{
  "source": "C:\\Users\\Peter\\Desktop\\stuff\\MIUN\\quantitative_research\\video_compression\\videos\\BVI-HD\\BVI-HD_CDVL_videos\\ORIG\\SmokeGuns_1920x1080_60fps.mp4",
  "output": "C:\\Users\\Peter\\Desktop\\stuff\\MIUN\\quantitative_research\\video_compression\\compressed_videos\\BVI-HD\\hevc\\2\\SmokeGuns_1920x1080_60fps_hevc.mp4",
  "codec": "hevc",
  "ok": "Input #0, mov,mp4,m4a,3gp,3g2,mj2, from 'C:\\Users\\Peter\\Desktop\\stuff\\MIUN\\quantitative_research\\video_compression\\videos\\BVI-HD\\BVI-HD_CDVL_videos\\ORIG\\SmokeGuns_1920x1080_60fps.mp4':\n  Metadata:\n    major_brand     : isom\n    minor_version   : 512\n    compatible_brands: isomiso2avc1mp41\n    encoder         : Lavf54.28.101\n  Duration: 00:00:05.00, start: 0.000000, bitrate: 384353 kb/s\n  Stream #0:0[0x1](und): Video: h264 (High 4:4:4 Predictive) (avc1 / 0x31637661), yuv420p(progressive), 1920x1080, 384348 kb/s, 60 fps, 60 tbr, 60 tbn (default)\n    Metadata:\n      handler_name    : VideoHandler\n      vendor_id       : [0][0][0][0]\n[out#0/mp4 @ 0000017ac4e1acc0] Codec AVOption b:a (set bitrate (in bits/s)) has not been used for any stream. The most likely reason is either wrong type (e.g. a video option with no video streams) or that it is a private option of some decoder which was not actually used for any stream.\nStream mapping:\n  Stream #0:0 -> #0:0 (h264 (native) -> hevc (libx265))\nPress [q] to stop, [?] for help\n[libx265 @ 0000017ac5480a80] Unknown option: \"aq-mode.\nx265 [info]: HEVC encoder version 4.1+190-8f11c33ac\nx265 [info]: build info [Windows][GCC 15.1.0][64 bit] 10bit\nx265 [info]: using cpu capabilities: MMX2 SSE2Fast LZCNT SSSE3 SSE4.2 AVX FMA3 BMI2 AVX2\nx265 [info]: Main 10 profile, Level-4.1 (Main tier)\nx265 [info]: Thread pool created using 12 threads\nx265 [info]: Slices                              : 1\nx265 [info]: frame threads / pool features       : 3 / wpp(17 rows)\nx265 [info]: Coding QT: max CU size, min CU size : 64 / 8\nx265 [info]: Residual QT: max TU size, max depth : 32 / 1 inter / 1 intra\nx265 [info]: ME / range / subpel / merge         : star / 57 / 3 / 3\nx265 [info]: Keyframe min / max / scenecut / bias  : 25 / 250 / 40 / 5.00 \nx265 [info]: Lookahead / bframes / badapt        : 25 / 4 / 2\nx265 [info]: b-pyramid / weightp / weightb       : 1 / 1 / 0\nx265 [info]: References / ref-limit  cu / depth  : 4 / on / on\nx265 [info]: AQ: mode / str / qg-size / cu-tree  : 2 / 1.0 / 32 / 1\nx265 [info]: Rate Control / qCompress            : ABR-2000 kbps / 0.60\nx265 [info]: VBV/HRD buffer / max-rate / init    : 2000 / 2000 / 0.750\nx265 [info]: tools: rect limit-modes rd=4 psy-rd=2.00 rdoq=2 psy-rdoq=1.00\nx265 [info]: tools: rskip mode=1 signhide tmvp strong-intra-smoothing lslices=4\nx265 [info]: tools: deblock sao dhdr10-info\nOutput #0, mp4, to 'C:\\Users\\Peter\\Desktop\\stuff\\MIUN\\quantitative_research\\video_compression\\compressed_videos\\BVI-HD\\hevc\\2\\SmokeGuns_1920x1080_60fps_hevc.mp4':\n  Metadata:\n    major_brand     : isom\n    minor_version   : 512\n    compatible_brands: isomiso2avc1mp41\n    encoder         : Lavf62.3.100\n  Stream #0:0(und): Video: hevc (hev1 / 0x31766568), yuv420p10le(tv, progressive), 1920x1080, q=2-31, 2000 kb/s, 60 fps, 15360 tbn (default)\n    Metadata:\n      encoder         : Lavc62.11.100 libx265\n      handler_name    : VideoHandler\n      vendor_id       : [0][0][0][0]\n    Side data:\n      cpb: bitrate max/min/avg: 2000000/0/2000000 buffer size: 2000000 vbv_delay: N/A\nframe=    0 fps=0.0 q=0.0 size=       0KiB time=N/A bitrate=N/A speed=N/A elapsed=0:00:00.50    \nframe=    0 fps=0.0 q=0.0 size=       0KiB time=N/A bitrate=N/A speed=N/A elapsed=0:00:01.02    \nframe=    0 fps=0.0 q=0.0 size=       0KiB time=N/A bitrate=N/A speed=N/A elapsed=0:00:01.53    \nframe=    0 fps=0.0 q=0.0 size=       0KiB time=N/A bitrate=N/A speed=N/A elapsed=0:00:02.06    \nframe=    0 fps=0.0 q=0.0 size=       0KiB time=N/A bitrate=N/A speed=N/A elapsed=0:00:02.57    \nframe=    0 fps=0.0 q=0.0 size=       0KiB time=N/A bitrate=N/A speed=N/A elapsed=0:00:03.08    \nframe=    0 fps=0.0 q=0.0 size=       0KiB time=N/A bitrate=N/A speed=N/A elapsed=0:00:03.60    \nframe=    1 fps=0.2 q=41.4 size=       0KiB time=-00:00:00.01 bitrate=N/A speed=N/A elapsed=0:00:04.11    \nframe=    2 fps=0.4 q=44.8 size=       0KiB time=00:00:00.00 bitrate=N/A speed=   0x elapsed=0:00:04.63    \nframe=    3 fps=0.6 q=48.3 size=       0KiB time=00:00:00.01 bitrate=  21.1kbits/s speed=0.00324x elapsed=0:00:05.14    \nframe=    4 fps=0.7 q=49.8 size=       0KiB time=00:00:00.03 bitrate=  10.6kbits/s speed=0.00589x elapsed=0:00:05.66    \nframe=    4 fps=0.6 q=49.8 size=       0KiB time=00:00:00.03 bitrate=  10.6kbits/s speed=0.0054x elapsed=0:00:06.17    \nframe=    5 fps=0.7 q=47.3 size=       0KiB time=00:00:00.05 bitrate=   7.0kbits/s speed=0.00747x elapsed=0:00:06.69    \nframe=    7 fps=1.0 q=39.5 size=       0KiB time=00:00:00.08 bitrate=   4.2kbits/s speed=0.0116x elapsed=0:00:07.21    \nframe=    8 fps=1.0 q=42.4 size=       0KiB time=00:00:00.10 bitrate=   3.5kbits/s speed=0.0129x elapsed=0:00:07.72    \nframe=    9 fps=1.1 q=42.3 size=       0KiB time=00:00:00.11 bitrate=   3.0kbits/s speed=0.0142x elapsed=0:00:08.23    \nframe=    9 fps=1.0 q=42.3 size=       0KiB time=00:00:00.11 bitrate=   3.0kbits/s speed=0.0133x elapsed=0:00:08.75    \nframe=   10 fps=1.1 q=42.1 size=       0KiB time=00:00:00.13 bitrate=   2.6kbits/s speed=0.0144x elapsed=0:00:09.26    \nframe=   11 fps=1.1 q=40.9 size=       0KiB time=00:00:00.15 bitrate=   2.3kbits/s speed=0.0153x elapsed=0:00:09.78    \nframe=   12 fps=1.2 q=36.8 size=       0KiB time=00:00:00.16 bitrate=   2.1kbits/s speed=0.0162x elapsed=0:00:10.30    \nframe=   13 fps=1.2 q=41.3 size=       0KiB time=00:00:00.18 bitrate=   1.9kbits/s speed=0.0169x elapsed=0:00:10.84    \nframe=   13 fps=1.1 q=41.3 size=       0KiB time=00:00:00.18 bitrate=   1.9kbits/s speed=0.0161x elapsed=0:00:11.36    \nframe=   13 fps=1.1 q=41.3 size=       0KiB time=00:00:00.18 bitrate=   1.9kbits/s speed=0.0154x elapsed=0:00:11.90    \nframe=   14 fps=1.1 q=41.5 size=       0KiB time=00:00:00.20 bitrate=   1.8kbits/s speed=0.0161x elapsed=0:00:12.41    \nframe=   14 fps=1.1 q=41.5 size=       0KiB time=00:00:00.20 bitrate=   1.8kbits/s speed=0.0155x elapsed=0:00:12.94    \nframe=   14 fps=1.0 q=41.5 size=       0KiB time=00:00:00.20 bitrate=   1.8kbits/s speed=0.0149x elapsed=0:00:13.46    \nframe=   14 fps=1.0 q=41.5 size=       0KiB time=00:00:00.20 bitrate=   1.8kbits/s speed=0.0143x elapsed=0:00:13.99    \nframe=   15 fps=1.0 q=41.4 size=       0KiB time=00:00:00.21 bitrate=   1.6kbits/s speed=0.0149x elapsed=0:00:14.51    \nframe=   15 fps=1.0 q=41.4 size=       0KiB time=00:00:00.21 bitrate=   1.6kbits/s speed=0.0144x elapsed=0:00:15.04    \nframe=   16 fps=1.0 q=41.1 size=       0KiB time=00:00:00.23 bitrate=   1.5kbits/s speed=0.015x elapsed=0:00:15.57    \nframe=   16 fps=1.0 q=41.1 size=       0KiB time=00:00:00.23 bitrate=   1.5kbits/s speed=0.0145x elapsed=0:00:16.09    \nframe=   17 fps=1.0 q=36.0 size=       0KiB time=00:00:00.25 bitrate=   1.4kbits/s speed=0.015x elapsed=0:00:16.62    \nframe=   18 fps=1.0 q=39.8 size=       0KiB time=00:00:00.26 bitrate=   1.3kbits/s speed=0.0155x elapsed=0:00:17.15    \nframe=   18 fps=1.0 q=39.8 size=       0KiB time=00:00:00.26 bitrate=   1.3kbits/s speed=0.0151x elapsed=0:00:17.66    \nframe=   18 fps=1.0 q=39.8 size=       0KiB time=00:00:00.26 bitrate=   1.3kbits/s speed=0.0146x elapsed=0:00:18.20    \nframe=   19 fps=1.0 q=40.2 size=       0KiB time=00:00:00.28 bitrate=   1.2kbits/s speed=0.0151x elapsed=0:00:18.70    \nframe=   19 fps=1.0 q=40.2 size=       0KiB time=00:00:00.28 bitrate=   1.2kbits/s speed=0.0147x elapsed=0:00:19.24    \nframe=   19 fps=1.0 q=40.2 size=       0KiB time=00:00:00.28 bitrate=   1.2kbits/s speed=0.0143x elapsed=0:00:19.75    \nframe=   19 fps=0.9 q=40.2 size=       0KiB time=00:00:00.28 bitrate=   1.2kbits/s speed=0.014x elapsed=0:00:20.28    \nframe=   20 fps=1.0 q=40.2 size=       0KiB time=00:00:00.30 bitrate=   1.2kbits/s speed=0.0144x elapsed=0:00:20.80    \nframe=   20 fps=0.9 q=40.2 size=       0KiB time=00:00:00.30 bitrate=   1.2kbits/s speed=0.0141x elapsed=0:00:21.33    \nframe=   21 fps=1.0 q=39.1 size=       0KiB time=00:00:00.31 bitrate=   1.1kbits/s speed=0.0145x elapsed=0:00:21.85    \nframe=   22 fps=1.0 q=35.2 size=       0KiB time=00:00:00.33 bitrate=   1.1kbits/s speed=0.0149x elapsed=0:00:22.37    \nframe=   22 fps=1.0 q=35.2 size=       0KiB time=00:00:00.33 bitrate=   1.1kbits/s speed=0.0146x elapsed=0:00:22.88    \nframe=   22 fps=0.9 q=35.2 size=       0KiB time=00:00:00.33 bitrate=   1.1kbits/s speed=0.0142x elapsed=0:00:23.41    \nframe=   23 fps=1.0 q=38.8 size=       0KiB time=00:00:00.35 bitrate=   1.0kbits/s speed=0.0146x elapsed=0:00:23.94    \nframe=   24 fps=1.0 q=38.9 size=       0KiB time=00:00:00.36 bitrate=   1.0kbits/s speed=0.015x elapsed=0:00:24.46    \nframe=   24 fps=1.0 q=38.9 size=       0KiB time=00:00:00.36 bitrate=   1.0kbits/s speed=0.0147x elapsed=0:00:24.99    \nframe=   24 fps=0.9 q=38.9 size=       0KiB time=00:00:00.36 bitrate=   1.0kbits/s speed=0.0144x elapsed=0:00:25.50    \nframe=   24 fps=0.9 q=38.9 size=       0KiB time=00:00:00.36 bitrate=   1.0kbits/s speed=0.0141x elapsed=0:00:26.05    \nframe=   24 fps=0.9 q=38.9 size=       0KiB time=00:00:00.36 bitrate=   1.0kbits/s speed=0.0138x elapsed=0:00:26.58    \nframe=   24 fps=0.9 q=38.9 size=       0KiB time=00:00:00.36 bitrate=   1.0kbits/s speed=0.0135x elapsed=0:00:27.12    \nframe=   25 fps=0.9 q=38.7 size=       0KiB time=00:00:00.38 bitrate=   0.9kbits/s speed=0.0139x elapsed=0:00:27.64    \nframe=   25 fps=0.9 q=38.7 size=       0KiB time=00:00:00.38 bitrate=   0.9kbits/s speed=0.0136x elapsed=0:00:28.15    \nframe=   25 fps=0.9 q=38.7 size=       0KiB time=00:00:00.38 bitrate=   0.9kbits/s speed=0.0134x elapsed=0:00:28.70    \nframe=   26 fps=0.9 q=38.5 size=       0KiB time=00:00:00.40 bitrate=   0.9kbits/s speed=0.0137x elapsed=0:00:29.23    \nframe=   26 fps=0.9 q=38.5 size=       0KiB time=00:00:00.40 bitrate=   0.9kbits/s speed=0.0134x elapsed=0:00:29.76    \nframe=   27 fps=0.9 q=34.5 size=       0KiB time=00:00:00.41 bitrate=   0.8kbits/s speed=0.0138x elapsed=0:00:30.29    \nframe=   27 fps=0.9 q=34.5 size=       0KiB time=00:00:00.41 bitrate=   0.8kbits/s speed=0.0135x elapsed=0:00:30.83    \nframe=   28 fps=0.9 q=38.2 size=       0KiB time=00:00:00.43 bitrate=   0.8kbits/s speed=0.0138x elapsed=0:00:31.36    \nframe=   28 fps=0.9 q=38.2 size=       0KiB time=00:00:00.43 bitrate=   0.8kbits/s speed=0.0136x elapsed=0:00:31.89    \nframe=   29 fps=0.9 q=38.8 size=       0KiB time=00:00:00.45 bitrate=   0.8kbits/s speed=0.0139x elapsed=0:00:32.46    \nframe=   29 fps=0.9 q=38.8 size=       0KiB time=00:00:00.45 bitrate=   0.8kbits/s speed=0.0136x elapsed=0:00:32.99    \nframe=   29 fps=0.9 q=38.8 size=       0KiB time=00:00:00.45 bitrate=   0.8kbits/s speed=0.0134x elapsed=0:00:33.52    \nframe=   29 fps=0.9 q=38.8 size=       0KiB time=00:00:00.45 bitrate=   0.8kbits/s speed=0.0132x elapsed=0:00:34.06    \nframe=   30 fps=0.9 q=37.9 size=       0KiB time=00:00:00.46 bitrate=   0.8kbits/s speed=0.0135x elapsed=0:00:34.58    \nframe=   30 fps=0.9 q=37.9 size=       0KiB time=00:00:00.46 bitrate=   0.8kbits/s speed=0.0133x elapsed=0:00:35.12    \nframe=   30 fps=0.8 q=37.9 size=       0KiB time=00:00:00.46 bitrate=   0.8kbits/s speed=0.0131x elapsed=0:00:35.64    \nframe=   31 fps=0.9 q=38.3 size=       0KiB time=00:00:00.48 bitrate=   0.7kbits/s speed=0.0134x elapsed=0:00:36.16    \nframe=   31 fps=0.8 q=38.3 size=       0KiB time=00:00:00.48 bitrate=   0.7kbits/s speed=0.0131x elapsed=0:00:36.76    \nframe=   31 fps=0.8 q=38.3 size=       0KiB time=00:00:00.48 bitrate=   0.7kbits/s speed=0.013x elapsed=0:00:37.28    \nframe=   32 fps=0.8 q=33.7 size=       0KiB time=00:00:00.50 bitrate=   0.7kbits/s speed=0.0132x elapsed=0:00:37.80    \nframe=   32 fps=0.8 q=33.7 size=       0KiB time=00:00:00.50 bitrate=   0.7kbits/s speed=0.013x elapsed=0:00:38.32    \nframe=   33 fps=0.8 q=38.3 size=       0KiB time=00:00:00.51 bitrate=   0.7kbits/s speed=0.0133x elapsed=0:00:38.84    \nframe=   33 fps=0.8 q=38.3 size=       0KiB time=00:00:00.51 bitrate=   0.7kbits/s speed=0.0131x elapsed=0:00:39.36    \nframe=   34 fps=0.9 q=37.9 size=       0KiB time=00:00:00.53 bitrate=   0.7kbits/s speed=0.0134x elapsed=0:00:39.91    \nframe=   34 fps=0.8 q=37.9 size=       0KiB time=00:00:00.53 bitrate=   0.7kbits/s speed=0.0132x elapsed=0:00:40.43    \nframe=   34 fps=0.8 q=37.9 size=       0KiB time=00:00:00.53 bitrate=   0.7kbits/s speed=0.013x elapsed=0:00:40.96    \nframe=   34 fps=0.8 q=37.9 size=       0KiB time=00:00:00.53 bitrate=   0.7kbits/s speed=0.0129x elapsed=0:00:41.49    \nframe=   35 fps=0.8 q=38.1 size=       0KiB time=00:00:00.55 bitrate=   0.6kbits/s speed=0.0131x elapsed=0:00:42.00    \nframe=   35 fps=0.8 q=38.1 size=       0KiB time=00:00:00.55 bitrate=   0.6kbits/s speed=0.0129x elapsed=0:00:42.54    \nframe=   36 fps=0.8 q=38.3 size=       0KiB time=00:00:00.56 bitrate=   0.6kbits/s speed=0.0132x elapsed=0:00:43.06    \nframe=   37 fps=0.8 q=33.4 size=       0KiB time=00:00:00.58 bitrate=   0.6kbits/s speed=0.0134x elapsed=0:00:43.60    \nframe=   38 fps=0.9 q=38.2 size=       0KiB time=00:00:00.60 bitrate=   0.6kbits/s speed=0.0136x elapsed=0:00:44.15    \nframe=   38 fps=0.8 q=38.2 size=       0KiB time=00:00:00.60 bitrate=   0.6kbits/s speed=0.0134x elapsed=0:00:44.71    \nframe=   38 fps=0.8 q=38.2 size=       0KiB time=00:00:00.60 bitrate=   0.6kbits/s speed=0.0133x elapsed=0:00:45.23    \nframe=   39 fps=0.9 q=38.2 size=       0KiB time=00:00:00.61 bitrate=   0.6kbits/s speed=0.0135x elapsed=0:00:45.78    \nframe=   39 fps=0.8 q=38.2 size=       0KiB time=00:00:00.61 bitrate=   0.6kbits/s speed=0.0133x elapsed=0:00:46.30    \nframe=   39 fps=0.8 q=38.2 size=       0KiB time=00:00:00.61 bitrate=   0.6kbits/s speed=0.0132x elapsed=0:00:46.86    \nframe=   39 fps=0.8 q=38.2 size=       0KiB time=00:00:00.61 bitrate=   0.6kbits/s speed=0.013x elapsed=0:00:47.40    \nframe=   39 fps=0.8 q=38.2 size=       0KiB time=00:00:00.61 bitrate=   0.6kbits/s speed=0.0129x elapsed=0:00:47.97    \nframe=   39 fps=0.8 q=38.2 size=       0KiB time=00:00:00.61 bitrate=   0.6kbits/s speed=0.0127x elapsed=0:00:48.52    \nframe=   40 fps=0.8 q=37.3 size=       0KiB time=00:00:00.63 bitrate=   0.6kbits/s speed=0.0129x elapsed=0:00:49.05    \nframe=   40 fps=0.8 q=37.3 size=       0KiB time=00:00:00.63 bitrate=   0.6kbits/s speed=0.0128x elapsed=0:00:49.58    \nframe=   40 fps=0.8 q=37.3 size=       0KiB time=00:00:00.63 bitrate=   0.6kbits/s speed=0.0126x elapsed=0:00:50.12    \nframe=   40 fps=0.8 q=37.3 size=       0KiB time=00:00:00.63 bitrate=   0.6kbits/s speed=0.0125x elapsed=0:00:50.65    \nframe=   41 fps=0.8 q=37.5 size=       0KiB time=00:00:00.65 bitrate=   0.5kbits/s speed=0.0127x elapsed=0:00:51.19    \nframe=   41 fps=0.8 q=37.5 size=       0KiB time=00:00:00.65 bitrate=   0.5kbits/s speed=0.0126x elapsed=0:00:51.70    \nframe=   41 fps=0.8 q=37.5 size=       0KiB time=00:00:00.65 bitrate=   0.5kbits/s speed=0.0124x elapsed=0:00:52.22    \nframe=   42 fps=0.8 q=32.7 size=       0KiB time=00:00:00.66 bitrate=   0.5kbits/s speed=0.0126x elapsed=0:00:52.75    \nframe=   42 fps=0.8 q=32.7 size=       0KiB time=00:00:00.66 bitrate=   0.5kbits/s speed=0.0125x elapsed=0:00:53.29    \nframe=   43 fps=0.8 q=37.0 size=       0KiB time=00:00:00.68 bitrate=   0.5kbits/s speed=0.0127x elapsed=0:00:53.84    \nframe=   44 fps=0.8 q=37.7 size=       0KiB time=00:00:00.70 bitrate=   0.5kbits/s speed=0.0129x elapsed=0:00:54.36    \nframe=   44 fps=0.8 q=37.7 size=       0KiB time=00:00:00.70 bitrate=   0.5kbits/s speed=0.0128x elapsed=0:00:54.89    \nframe=   44 fps=0.8 q=37.7 size=       0KiB time=00:00:00.70 bitrate=   0.5kbits/s speed=0.0126x elapsed=0:00:55.41    \nframe=   44 fps=0.8 q=37.7 size=       0KiB time=00:00:00.70 bitrate=   0.5kbits/s speed=0.0125x elapsed=0:00:55.95    \nframe=   44 fps=0.8 q=37.7 size=       0KiB time=00:00:00.70 bitrate=   0.5kbits/s speed=0.0124x elapsed=0:00:56.47    \nframe=   44 fps=0.8 q=37.7 size=       0KiB time=00:00:00.70 bitrate=   0.5kbits/s speed=0.0123x elapsed=0:00:56.99    \nframe=   44 fps=0.8 q=37.7 size=       0KiB time=00:00:00.70 bitrate=   0.5kbits/s speed=0.0122x elapsed=0:00:57.50    \nframe=   45 fps=0.8 q=37.5 size=       0KiB time=00:00:00.71 bitrate=   0.5kbits/s speed=0.0123x elapsed=0:00:58.03    \nframe=   46 fps=0.8 q=37.7 size=       0KiB time=00:00:00.73 bitrate=   0.5kbits/s speed=0.0125x elapsed=0:00:58.53    \nframe=   46 fps=0.8 q=37.7 size=       0KiB time=00:00:00.73 bitrate=   0.5kbits/s speed=0.0124x elapsed=0:00:59.05    \nframe=   47 fps=0.8 q=32.8 size=       0KiB time=00:00:00.75 bitrate=   0.5kbits/s speed=0.0126x elapsed=0:00:59.58    \nframe=   47 fps=0.8 q=32.8 size=       0KiB time=00:00:00.75 bitrate=   0.5kbits/s speed=0.0125x elapsed=0:01:00.10    \nframe=   47 fps=0.8 q=32.8 size=       0KiB time=00:00:00.75 bitrate=   0.5kbits/s speed=0.0124x elapsed=0:01:00.62    \nframe=   47 fps=0.8 q=32.8 size=       0KiB time=00:00:00.75 bitrate=   0.5kbits/s speed=0.0123x elapsed=0:01:01.15    \nframe=   47 fps=0.8 q=32.8 size=       0KiB time=00:00:00.75 bitrate=   0.5kbits/s speed=0.0122x elapsed=0:01:01.67    \nframe=   49 fps=0.8 q=38.2 size=       0KiB time=00:00:00.78 bitrate=   0.4kbits/s speed=0.0126x elapsed=0:01:02.18    \nframe=   49 fps=0.8 q=38.2 size=       0KiB time=00:00:00.78 bitrate=   0.4kbits/s speed=0.0125x elapsed=0:01:02.70    \nframe=   49 fps=0.8 q=38.2 size=       0KiB time=00:00:00.78 bitrate=   0.4kbits/s speed=0.0124x elapsed=0:01:03.21    \nframe=   49 fps=0.8 q=38.2 size=       0KiB time=00:00:00.78 bitrate=   0.4kbits/s speed=0.0123x elapsed=0:01:03.75    \nframe=   50 fps=0.8 q=37.4 size=       0KiB time=00:00:00.80 bitrate=   0.4kbits/s speed=0.0124x elapsed=0:01:04.28    \nframe=   50 fps=0.8 q=37.4 size=       0KiB time=00:00:00.80 bitrate=   0.4kbits/s speed=0.0123x elapsed=0:01:04.84    \nframe=   50 fps=0.8 q=37.4 size=       0KiB time=00:00:00.80 bitrate=   0.4kbits/s speed=0.0122x elapsed=0:01:05.39    \nframe=   50 fps=0.8 q=37.4 size=       0KiB time=00:00:00.80 bitrate=   0.4kbits/s speed=0.0121x elapsed=0:01:05.94    \nframe=   50 fps=0.8 q=37.4 size=       0KiB time=00:00:00.80 bitrate=   0.4kbits/s speed=0.012x elapsed=0:01:06.50    \nframe=   50 fps=0.7 q=37.4 size=       0KiB time=00:00:00.80 bitrate=   0.4kbits/s speed=0.0119x elapsed=0:01:07.05    \nframe=   50 fps=0.7 q=37.4 size=       0KiB time=00:00:00.80 bitrate=   0.4kbits/s speed=0.0118x elapsed=0:01:07.58    \nframe=   50 fps=0.7 q=37.4 size=       0KiB time=00:00:00.80 bitrate=   0.4kbits/s speed=0.0117x elapsed=0:01:08.09    \nframe=   50 fps=0.7 q=37.4 size=       0KiB time=00:00:00.80 bitrate=   0.4kbits/s speed=0.0117x elapsed=0:01:08.61    \nframe=   51 fps=0.7 q=37.6 size=       0KiB time=00:00:00.81 bitrate=   0.4kbits/s speed=0.0118x elapsed=0:01:09.13    \nframe=   52 fps=0.7 q=32.1 size=       0KiB time=00:00:00.83 bitrate=   0.4kbits/s speed=0.012x elapsed=0:01:09.65    \nframe=   53 fps=0.8 q=37.0 size=       0KiB time=00:00:00.85 bitrate=   0.4kbits/s speed=0.0121x elapsed=0:01:10.17    \nframe=   54 fps=0.8 q=37.5 size=       0KiB time=00:00:00.86 bitrate=   0.4kbits/s speed=0.0123x elapsed=0:01:10.70    \nframe=   54 fps=0.8 q=37.5 size=       0KiB time=00:00:00.86 bitrate=   0.4kbits/s speed=0.0122x elapsed=0:01:11.21    \nframe=   54 fps=0.8 q=37.5 size=       0KiB time=00:00:00.86 bitrate=   0.4kbits/s speed=0.0121x elapsed=0:01:11.72    \nframe=   55 fps=0.8 q=37.5 size=       0KiB time=00:00:00.88 bitrate=   0.4kbits/s speed=0.0122x elapsed=0:01:12.23    \nframe=   56 fps=0.8 q=37.6 size=       0KiB time=00:00:00.90 bitrate=   0.4kbits/s speed=0.0124x elapsed=0:01:12.76    \nframe=   57 fps=0.8 q=32.1 size=       0KiB time=00:00:00.91 bitrate=   0.4kbits/s speed=0.0125x elapsed=0:01:13.27    \nframe=   58 fps=0.8 q=36.8 size=       0KiB time=00:00:00.93 bitrate=   0.4kbits/s speed=0.0126x elapsed=0:01:13.79    \nframe=   59 fps=0.8 q=38.2 size=       0KiB time=00:00:00.95 bitrate=   0.4kbits/s speed=0.0128x elapsed=0:01:14.30    \nframe=   59 fps=0.8 q=38.2 size=       0KiB time=00:00:00.95 bitrate=   0.4kbits/s speed=0.0127x elapsed=0:01:14.82    \nframe=   60 fps=0.8 q=37.5 size=       0KiB time=00:00:00.96 bitrate=   0.4kbits/s speed=0.0128x elapsed=0:01:15.34    \nframe=   60 fps=0.8 q=37.5 size=       0KiB time=00:00:00.96 bitrate=   0.4kbits/s speed=0.0127x elapsed=0:01:15.85    \nframe=   61 fps=0.8 q=37.7 size=       0KiB time=00:00:00.98 bitrate=   0.4kbits/s speed=0.0129x elapsed=0:01:16.37    \nframe=   62 fps=0.8 q=32.2 size=       0KiB time=00:00:01.00 bitrate=   0.4kbits/s speed=0.013x elapsed=0:01:16.87    \nframe=   63 fps=0.8 q=36.9 size=       0KiB time=00:00:01.01 bitrate=   0.3kbits/s speed=0.0131x elapsed=0:01:17.40    \nframe=   64 fps=0.8 q=38.1 size=       0KiB time=00:00:01.03 bitrate=   0.3kbits/s speed=0.0133x elapsed=0:01:17.91    \nframe=   64 fps=0.8 q=38.1 size=       0KiB time=00:00:01.03 bitrate=   0.3kbits/s speed=0.0132x elapsed=0:01:18.42    \nframe=   65 fps=0.8 q=37.4 size=       0KiB time=00:00:01.05 bitrate=   0.3kbits/s speed=0.0133x elapsed=0:01:18.94    \nframe=   65 fps=0.8 q=37.4 size=       0KiB time=00:00:01.05 bitrate=   0.3kbits/s speed=0.0132x elapsed=0:01:19.46    \nframe=   67 fps=0.8 q=32.8 size=       0KiB time=00:00:01.08 bitrate=   0.3kbits/s speed=0.0135x elapsed=0:01:19.97    \nframe=   68 fps=0.8 q=36.9 size=       0KiB time=00:00:01.10 bitrate=   0.3kbits/s speed=0.0137x elapsed=0:01:20.49    \nframe=   69 fps=0.9 q=38.1 size=       0KiB time=00:00:01.11 bitrate=   0.3kbits/s speed=0.0138x elapsed=0:01:21.01    \nframe=   69 fps=0.8 q=38.1 size=       0KiB time=00:00:01.11 bitrate=   0.3kbits/s speed=0.0137x elapsed=0:01:21.52    \nframe=   69 fps=0.8 q=38.1 size=       0KiB time=00:00:01.11 bitrate=   0.3kbits/s speed=0.0136x elapsed=0:01:22.03    \nframe=   70 fps=0.8 q=37.3 size=       0KiB time=00:00:01.13 bitrate=   0.3kbits/s speed=0.0137x elapsed=0:01:22.55    \nframe=   71 fps=0.9 q=37.5 size=       0KiB time=00:00:01.15 bitrate=   0.3kbits/s speed=0.0138x elapsed=0:01:23.07    \nframe=   71 fps=0.8 q=37.5 size=       0KiB time=00:00:01.15 bitrate=   0.3kbits/s speed=0.0138x elapsed=0:01:23.59    \nframe=   72 fps=0.9 q=32.4 size=       0KiB time=00:00:01.16 bitrate=   0.3kbits/s speed=0.0139x elapsed=0:01:24.12    \nframe=   73 fps=0.9 q=36.4 size=     256KiB time=00:00:01.18 bitrate=1772.5kbits/s speed=0.014x elapsed=0:01:24.63    \nframe=   74 fps=0.9 q=38.1 size=     256KiB time=00:00:01.20 bitrate=1747.9kbits/s speed=0.0141x elapsed=0:01:25.14    \nframe=   74 fps=0.9 q=38.1 size=     256KiB time=00:00:01.20 bitrate=1747.9kbits/s speed=0.014x elapsed=0:01:25.66    \nframe=   75 fps=0.9 q=37.6 size=     256KiB time=00:00:01.21 bitrate=1724.0kbits/s speed=0.0141x elapsed=0:01:26.18    \nframe=   76 fps=0.9 q=37.5 size=     256KiB time=00:00:01.23 bitrate=1700.7kbits/s speed=0.0142x elapsed=0:01:26.69    \nframe=   77 fps=0.9 q=32.8 size=     256KiB time=00:00:01.25 bitrate=1678.0kbits/s speed=0.0143x elapsed=0:01:27.20    \nframe=   78 fps=0.9 q=36.3 size=     256KiB time=00:00:01.26 bitrate=1655.9kbits/s speed=0.0144x elapsed=0:01:27.72    \nframe=   79 fps=0.9 q=37.3 size=     256KiB time=00:00:01.28 bitrate=1634.4kbits/s speed=0.0145x elapsed=0:01:28.24    \nframe=   79 fps=0.9 q=37.3 size=     256KiB time=00:00:01.28 bitrate=1634.4kbits/s speed=0.0145x elapsed=0:01:28.76    \nframe=   80 fps=0.9 q=37.3 size=     256KiB time=00:00:01.30 bitrate=1613.5kbits/s speed=0.0146x elapsed=0:01:29.28    \nframe=   80 fps=0.9 q=37.3 size=     256KiB time=00:00:01.30 bitrate=1613.5kbits/s speed=0.0145x elapsed=0:01:29.78    \nframe=   81 fps=0.9 q=38.2 size=     256KiB time=00:00:01.31 bitrate=1593.0kbits/s speed=0.0146x elapsed=0:01:30.31    \nframe=   82 fps=0.9 q=33.1 size=     256KiB time=00:00:01.33 bitrate=1573.1kbits/s speed=0.0147x elapsed=0:01:30.82    \nframe=   83 fps=0.9 q=36.7 size=     256KiB time=00:00:01.35 bitrate=1553.7kbits/s speed=0.0148x elapsed=0:01:31.33    \nframe=   84 fps=0.9 q=38.1 size=     256KiB time=00:00:01.36 bitrate=1534.8kbits/s speed=0.0149x elapsed=0:01:31.84    \nframe=   84 fps=0.9 q=38.1 size=     256KiB time=00:00:01.36 bitrate=1534.8kbits/s speed=0.0148x elapsed=0:01:32.37    \nframe=   85 fps=0.9 q=38.0 size=     256KiB time=00:00:01.38 bitrate=1516.3kbits/s speed=0.0149x elapsed=0:01:32.90    \nframe=   85 fps=0.9 q=38.0 size=     256KiB time=00:00:01.38 bitrate=1516.3kbits/s speed=0.0148x elapsed=0:01:33.40    \nframe=   86 fps=0.9 q=38.3 size=     256KiB time=00:00:01.40 bitrate=1498.2kbits/s speed=0.0149x elapsed=0:01:33.93    \nframe=   87 fps=0.9 q=33.1 size=     256KiB time=00:00:01.41 bitrate=1480.6kbits/s speed=0.015x elapsed=0:01:34.44    \nframe=   89 fps=0.9 q=38.1 size=     256KiB time=00:00:01.45 bitrate=1446.6kbits/s speed=0.0153x elapsed=0:01:34.97    \nframe=   89 fps=0.9 q=38.1 size=     256KiB time=00:00:01.45 bitrate=1446.6kbits/s speed=0.0152x elapsed=0:01:35.47    \nframe=   89 fps=0.9 q=38.1 size=     256KiB time=00:00:01.45 bitrate=1446.6kbits/s speed=0.0151x elapsed=0:01:35.99    \nframe=   90 fps=0.9 q=38.0 size=     256KiB time=00:00:01.46 bitrate=1430.1kbits/s speed=0.0152x elapsed=0:01:36.50    \nframe=   91 fps=0.9 q=38.2 size=     256KiB time=00:00:01.48 bitrate=1414.0kbits/s speed=0.0153x elapsed=0:01:37.01    \nframe=   91 fps=0.9 q=38.2 size=     256KiB time=00:00:01.48 bitrate=1414.0kbits/s speed=0.0152x elapsed=0:01:37.54    \nframe=   92 fps=0.9 q=33.4 size=     256KiB time=00:00:01.50 bitrate=1398.3kbits/s speed=0.0153x elapsed=0:01:38.05    \nframe=   93 fps=0.9 q=36.8 size=     256KiB time=00:00:01.51 bitrate=1383.0kbits/s speed=0.0154x elapsed=0:01:38.57    \nframe=   94 fps=0.9 q=38.0 size=     256KiB time=00:00:01.53 bitrate=1367.9kbits/s speed=0.0155x elapsed=0:01:39.09    \nframe=   94 fps=0.9 q=38.0 size=     256KiB time=00:00:01.53 bitrate=1367.9kbits/s speed=0.0154x elapsed=0:01:39.59    \nframe=   95 fps=0.9 q=38.0 size=     256KiB time=00:00:01.55 bitrate=1353.2kbits/s speed=0.0155x elapsed=0:01:40.12    \nframe=   96 fps=1.0 q=38.1 size=     256KiB time=00:00:01.56 bitrate=1338.8kbits/s speed=0.0156x elapsed=0:01:40.63    \nframe=   96 fps=0.9 q=38.1 size=     256KiB time=00:00:01.56 bitrate=1338.8kbits/s speed=0.0155x elapsed=0:01:41.14    \nframe=   97 fps=1.0 q=33.4 size=     256KiB time=00:00:01.58 bitrate=1324.7kbits/s speed=0.0156x elapsed=0:01:41.66    \nframe=   97 fps=0.9 q=33.4 size=     256KiB time=00:00:01.58 bitrate=1324.7kbits/s speed=0.0155x elapsed=0:01:42.19    \nframe=   97 fps=0.9 q=33.4 size=     256KiB time=00:00:01.58 bitrate=1324.7kbits/s speed=0.0154x elapsed=0:01:42.70    \nframe=   98 fps=0.9 q=37.1 size=     256KiB time=00:00:01.60 bitrate=1310.9kbits/s speed=0.0155x elapsed=0:01:43.23    \nframe=   98 fps=0.9 q=37.1 size=     256KiB time=00:00:01.60 bitrate=1310.9kbits/s speed=0.0154x elapsed=0:01:43.76    \nframe=   99 fps=0.9 q=38.3 size=     256KiB time=00:00:01.61 bitrate=1297.4kbits/s speed=0.0155x elapsed=0:01:44.27    \nframe=   99 fps=0.9 q=38.3 size=     256KiB time=00:00:01.61 bitrate=1297.4kbits/s speed=0.0154x elapsed=0:01:44.78    \nframe=   99 fps=0.9 q=38.3 size=     256KiB time=00:00:01.61 bitrate=1297.4kbits/s speed=0.0154x elapsed=0:01:45.31    \nframe=   99 fps=0.9 q=38.3 size=     256KiB time=00:00:01.61 bitrate=1297.4kbits/s speed=0.0153x elapsed=0:01:45.85    \nframe=  100 fps=0.9 q=38.2 size=     256KiB time=00:00:01.63 bitrate=1284.2kbits/s speed=0.0154x elapsed=0:01:46.38    \nframe=  100 fps=0.9 q=38.2 size=     256KiB time=00:00:01.63 bitrate=1284.2kbits/s speed=0.0153x elapsed=0:01:46.92    \nframe=  100 fps=0.9 q=38.2 size=     256KiB time=00:00:01.63 bitrate=1284.2kbits/s speed=0.0152x elapsed=0:01:47.45    \nframe=  101 fps=0.9 q=38.2 size=     256KiB time=00:00:01.65 bitrate=1271.2kbits/s speed=0.0153x elapsed=0:01:47.97    \nframe=  101 fps=0.9 q=38.2 size=     256KiB time=00:00:01.65 bitrate=1271.2kbits/s speed=0.0152x elapsed=0:01:48.49    \nframe=  101 fps=0.9 q=38.2 size=     256KiB time=00:00:01.65 bitrate=1271.2kbits/s speed=0.0151x elapsed=0:01:49.02    \nframe=  102 fps=0.9 q=33.8 size=     256KiB time=00:00:01.66 bitrate=1258.5kbits/s speed=0.0152x elapsed=0:01:49.54    \nframe=  102 fps=0.9 q=33.8 size=     256KiB time=00:00:01.66 bitrate=1258.5kbits/s speed=0.0151x elapsed=0:01:50.06    \nframe=  103 fps=0.9 q=37.6 size=     256KiB time=00:00:01.68 bitrate=1246.0kbits/s speed=0.0152x elapsed=0:01:50.59    \nframe=  103 fps=0.9 q=37.6 size=     256KiB time=00:00:01.68 bitrate=1246.0kbits/s speed=0.0151x elapsed=0:01:51.12    \nframe=  104 fps=0.9 q=38.7 size=     256KiB time=00:00:01.70 bitrate=1233.8kbits/s speed=0.0152x elapsed=0:01:51.65    \nframe=  104 fps=0.9 q=38.7 size=     256KiB time=00:00:01.70 bitrate=1233.8kbits/s speed=0.0152x elapsed=0:01:52.16    \nframe=  104 fps=0.9 q=38.7 size=     256KiB time=00:00:01.70 bitrate=1233.8kbits/s speed=0.0151x elapsed=0:01:52.67    \nframe=  105 fps=0.9 q=38.8 size=     256KiB time=00:00:01.71 bitrate=1221.8kbits/s speed=0.0152x elapsed=0:01:53.19    \nframe=  105 fps=0.9 q=38.8 size=     256KiB time=00:00:01.71 bitrate=1221.8kbits/s speed=0.0151x elapsed=0:01:53.71    \nframe=  105 fps=0.9 q=38.8 size=     256KiB time=00:00:01.71 bitrate=1221.8kbits/s speed=0.015x elapsed=0:01:54.23    \nframe=  105 fps=0.9 q=38.8 size=     256KiB time=00:00:01.71 bitrate=1221.8kbits/s speed=0.015x elapsed=0:01:54.75    \nframe=  106 fps=0.9 q=38.9 size=     256KiB time=00:00:01.73 bitrate=1210.1kbits/s speed=0.015x elapsed=0:01:55.27    \nframe=  106 fps=0.9 q=38.9 size=     256KiB time=00:00:01.73 bitrate=1210.1kbits/s speed=0.015x elapsed=0:01:55.80    \nframe=  106 fps=0.9 q=38.9 size=     256KiB time=00:00:01.73 bitrate=1210.1kbits/s speed=0.0149x elapsed=0:01:56.34    \nframe=  106 fps=0.9 q=38.9 size=     256KiB time=00:00:01.73 bitrate=1210.1kbits/s speed=0.0148x elapsed=0:01:56.86    \nframe=  107 fps=0.9 q=33.7 size=     256KiB time=00:00:01.75 bitrate=1198.6kbits/s speed=0.0149x elapsed=0:01:57.37    \nframe=  107 fps=0.9 q=33.7 size=     256KiB time=00:00:01.75 bitrate=1198.6kbits/s speed=0.0148x elapsed=0:01:57.90    \nframe=  107 fps=0.9 q=33.7 size=     256KiB time=00:00:01.75 bitrate=1198.6kbits/s speed=0.0148x elapsed=0:01:58.42    \nframe=  108 fps=0.9 q=36.4 size=     256KiB time=00:00:01.76 bitrate=1187.3kbits/s speed=0.0149x elapsed=0:01:58.94    \nframe=  108 fps=0.9 q=36.4 size=     256KiB time=00:00:01.76 bitrate=1187.3kbits/s speed=0.0148x elapsed=0:01:59.49    \nframe=  108 fps=0.9 q=36.4 size=     256KiB time=00:00:01.76 bitrate=1187.3kbits/s speed=0.0147x elapsed=0:02:00.00    \nframe=  108 fps=0.9 q=36.4 size=     256KiB time=00:00:01.76 bitrate=1187.3kbits/s speed=0.0147x elapsed=0:02:00.52    \nframe=  108 fps=0.9 q=36.4 size=     256KiB time=00:00:01.76 bitrate=1187.3kbits/s speed=0.0146x elapsed=0:02:01.07    \nframe=  109 fps=0.9 q=39.0 size=     256KiB time=00:00:01.78 bitrate=1176.2kbits/s speed=0.0147x elapsed=0:02:01.61    \nframe=  109 fps=0.9 q=39.0 size=     256KiB time=00:00:01.78 bitrate=1176.2kbits/s speed=0.0146x elapsed=0:02:02.13    \nframe=  109 fps=0.9 q=39.0 size=     256KiB time=00:00:01.78 bitrate=1176.2kbits/s speed=0.0145x elapsed=0:02:02.65    \nframe=  109 fps=0.9 q=39.0 size=     256KiB time=00:00:01.78 bitrate=1176.2kbits/s speed=0.0145x elapsed=0:02:03.18    \nframe=  110 fps=0.9 q=39.0 size=     256KiB time=00:00:01.80 bitrate=1165.3kbits/s speed=0.0145x elapsed=0:02:03.72    \nframe=  110 fps=0.9 q=39.0 size=     256KiB time=00:00:01.80 bitrate=1165.3kbits/s speed=0.0145x elapsed=0:02:04.25    \nframe=  110 fps=0.9 q=39.0 size=     256KiB time=00:00:01.80 bitrate=1165.3kbits/s speed=0.0144x elapsed=0:02:04.75    \nframe=  111 fps=0.9 q=33.6 size=     256KiB time=00:00:01.81 bitrate=1154.6kbits/s speed=0.0145x elapsed=0:02:05.27    \nframe=  111 fps=0.9 q=33.6 size=     256KiB time=00:00:01.81 bitrate=1154.6kbits/s speed=0.0144x elapsed=0:02:05.80    \nframe=  111 fps=0.9 q=33.6 size=     256KiB time=00:00:01.81 bitrate=1154.6kbits/s speed=0.0144x elapsed=0:02:06.31    \nframe=  112 fps=0.9 q=36.5 size=     256KiB time=00:00:01.83 bitrate=1144.1kbits/s speed=0.0145x elapsed=0:02:06.84    \nframe=  113 fps=0.9 q=38.8 size=     256KiB time=00:00:01.85 bitrate=1133.8kbits/s speed=0.0145x elapsed=0:02:07.37    \nframe=  113 fps=0.9 q=38.8 size=     256KiB time=00:00:01.85 bitrate=1133.8kbits/s speed=0.0145x elapsed=0:02:07.90    \nframe=  114 fps=0.9 q=38.7 size=     256KiB time=00:00:01.86 bitrate=1123.7kbits/s speed=0.0145x elapsed=0:02:08.41    \nframe=  114 fps=0.9 q=38.7 size=     256KiB time=00:00:01.86 bitrate=1123.7kbits/s speed=0.0145x elapsed=0:02:08.93    \nframe=  114 fps=0.9 q=38.7 size=     256KiB time=00:00:01.86 bitrate=1123.7kbits/s speed=0.0144x elapsed=0:02:09.47    \nframe=  115 fps=0.9 q=38.6 size=     256KiB time=00:00:01.88 bitrate=1113.7kbits/s speed=0.0145x elapsed=0:02:10.01    \nframe=  115 fps=0.9 q=38.6 size=     256KiB time=00:00:01.88 bitrate=1113.7kbits/s speed=0.0144x elapsed=0:02:10.52    \nframe=  115 fps=0.9 q=38.6 size=     256KiB time=00:00:01.88 bitrate=1113.7kbits/s speed=0.0144x elapsed=0:02:11.03    \nframe=  116 fps=0.9 q=33.6 size=     256KiB time=00:00:01.90 bitrate=1103.9kbits/s speed=0.0144x elapsed=0:02:11.55    \nframe=  116 fps=0.9 q=33.6 size=     256KiB time=00:00:01.90 bitrate=1103.9kbits/s speed=0.0144x elapsed=0:02:12.06    \nframe=  116 fps=0.9 q=33.6 size=     256KiB time=00:00:01.90 bitrate=1103.9kbits/s speed=0.0143x elapsed=0:02:12.58    \nframe=  117 fps=0.9 q=35.0 size=     256KiB time=00:00:01.91 bitrate=1094.3kbits/s speed=0.0144x elapsed=0:02:13.12    \nframe=  117 fps=0.9 q=35.0 size=     256KiB time=00:00:01.91 bitrate=1094.3kbits/s speed=0.0143x elapsed=0:02:13.67    \nframe=  118 fps=0.9 q=38.7 size=     256KiB time=00:00:01.93 bitrate=1084.9kbits/s speed=0.0144x elapsed=0:02:14.21    \nframe=  118 fps=0.9 q=38.7 size=     256KiB time=00:00:01.93 bitrate=1084.9kbits/s speed=0.0144x elapsed=0:02:14.72    \nframe=  118 fps=0.9 q=38.7 size=     256KiB time=00:00:01.93 bitrate=1084.9kbits/s speed=0.0143x elapsed=0:02:15.24    \nframe=  118 fps=0.9 q=38.7 size=     256KiB time=00:00:01.93 bitrate=1084.9kbits/s speed=0.0142x elapsed=0:02:15.78    \nframe=  118 fps=0.9 q=38.7 size=     256KiB time=00:00:01.93 bitrate=1084.9kbits/s speed=0.0142x elapsed=0:02:16.35    \nframe=  118 fps=0.9 q=38.7 size=     256KiB time=00:00:01.93 bitrate=1084.9kbits/s speed=0.0141x elapsed=0:02:16.87    \nframe=  118 fps=0.9 q=38.7 size=     256KiB time=00:00:01.93 bitrate=1084.9kbits/s speed=0.0141x elapsed=0:02:17.40    \nframe=  118 fps=0.9 q=38.7 size=     256KiB time=00:00:01.93 bitrate=1084.9kbits/s speed=0.014x elapsed=0:02:17.92    \nframe=  118 fps=0.9 q=38.7 size=     256KiB time=00:00:01.93 bitrate=1084.9kbits/s speed=0.014x elapsed=0:02:18.47    \nframe=  119 fps=0.9 q=38.6 size=     256KiB time=00:00:01.95 bitrate=1075.6kbits/s speed=0.014x elapsed=0:02:18.99    \nframe=  120 fps=0.9 q=38.7 size=     256KiB time=00:00:01.96 bitrate=1066.5kbits/s speed=0.0141x elapsed=0:02:19.53    \nframe=  121 fps=0.9 q=33.5 size=     256KiB time=00:00:01.98 bitrate=1057.6kbits/s speed=0.0142x elapsed=0:02:20.06    \nframe=  121 fps=0.9 q=33.5 size=     256KiB time=00:00:01.98 bitrate=1057.6kbits/s speed=0.0141x elapsed=0:02:20.60    \nframe=  121 fps=0.9 q=33.5 size=     256KiB time=00:00:01.98 bitrate=1057.6kbits/s speed=0.0141x elapsed=0:02:21.12    \nframe=  121 fps=0.9 q=33.5 size=     256KiB time=00:00:01.98 bitrate=1057.6kbits/s speed=0.014x elapsed=0:02:21.67    \nframe=  121 fps=0.9 q=33.5 size=     256KiB time=00:00:01.98 bitrate=1057.6kbits/s speed=0.0139x elapsed=0:02:22.21    \nframe=  121 fps=0.8 q=33.5 size=     256KiB time=00:00:01.98 bitrate=1057.6kbits/s speed=0.0139x elapsed=0:02:22.75    \nframe=  122 fps=0.9 q=34.6 size=     256KiB time=00:00:02.00 bitrate=1048.8kbits/s speed=0.014x elapsed=0:02:23.26    \nframe=  122 fps=0.8 q=34.6 size=     256KiB time=00:00:02.00 bitrate=1048.8kbits/s speed=0.0139x elapsed=0:02:23.78    \nframe=  122 fps=0.8 q=34.6 size=     256KiB time=00:00:02.00 bitrate=1048.8kbits/s speed=0.0139x elapsed=0:02:24.30    \nframe=  123 fps=0.8 q=38.6 size=     256KiB time=00:00:02.01 bitrate=1040.1kbits/s speed=0.0139x elapsed=0:02:24.85    \nframe=  123 fps=0.8 q=38.6 size=     256KiB time=00:00:02.01 bitrate=1040.1kbits/s speed=0.0139x elapsed=0:02:25.39    \nframe=  123 fps=0.8 q=38.6 size=     256KiB time=00:00:02.01 bitrate=1040.1kbits/s speed=0.0138x elapsed=0:02:25.93    \nframe=  123 fps=0.8 q=38.6 size=     256KiB time=00:00:02.01 bitrate=1040.1kbits/s speed=0.0138x elapsed=0:02:26.44    \nframe=  123 fps=0.8 q=38.6 size=     256KiB time=00:00:02.01 bitrate=1040.1kbits/s speed=0.0137x elapsed=0:02:26.96    \nframe=  123 fps=0.8 q=38.6 size=     256KiB time=00:00:02.01 bitrate=1040.1kbits/s speed=0.0137x elapsed=0:02:27.49    \nframe=  124 fps=0.8 q=38.5 size=     256KiB time=00:00:02.03 bitrate=1031.6kbits/s speed=0.0137x elapsed=0:02:28.01    \nframe=  124 fps=0.8 q=38.5 size=     256KiB time=00:00:02.03 bitrate=1031.6kbits/s speed=0.0137x elapsed=0:02:28.54    \nframe=  124 fps=0.8 q=38.5 size=     256KiB time=00:00:02.03 bitrate=1031.6kbits/s speed=0.0136x elapsed=0:02:29.05    \nframe=  125 fps=0.8 q=38.6 size=     256KiB time=00:00:02.05 bitrate=1023.2kbits/s speed=0.0137x elapsed=0:02:29.57    \nframe=  126 fps=0.8 q=33.4 size=     256KiB time=00:00:02.06 bitrate=1014.9kbits/s speed=0.0138x elapsed=0:02:30.12    \nframe=  126 fps=0.8 q=33.4 size=     256KiB time=00:00:02.06 bitrate=1014.9kbits/s speed=0.0137x elapsed=0:02:30.64    \nframe=  126 fps=0.8 q=33.4 size=     256KiB time=00:00:02.06 bitrate=1014.9kbits/s speed=0.0137x elapsed=0:02:31.17    \nframe=  127 fps=0.8 q=37.2 size=     256KiB time=00:00:02.08 bitrate=1006.8kbits/s speed=0.0137x elapsed=0:02:31.69    \nframe=  128 fps=0.8 q=38.4 size=     256KiB time=00:00:02.10 bitrate= 998.8kbits/s speed=0.0138x elapsed=0:02:32.21    \nframe=  128 fps=0.8 q=38.4 size=     256KiB time=00:00:02.10 bitrate= 998.8kbits/s speed=0.0137x elapsed=0:02:32.75    \nframe=  128 fps=0.8 q=38.4 size=     256KiB time=00:00:02.10 bitrate= 998.8kbits/s speed=0.0137x elapsed=0:02:33.26    \nframe=  128 fps=0.8 q=38.4 size=     256KiB time=00:00:02.10 bitrate= 998.8kbits/s speed=0.0137x elapsed=0:02:33.79    \nframe=  128 fps=0.8 q=38.4 size=     256KiB time=00:00:02.10 bitrate= 998.8kbits/s speed=0.0136x elapsed=0:02:34.36    \nframe=  129 fps=0.8 q=38.4 size=     256KiB time=00:00:02.11 bitrate= 990.9kbits/s speed=0.0137x elapsed=0:02:34.91    \nframe=  129 fps=0.8 q=38.4 size=     256KiB time=00:00:02.11 bitrate= 990.9kbits/s speed=0.0136x elapsed=0:02:35.47    \nframe=  129 fps=0.8 q=38.4 size=     256KiB time=00:00:02.11 bitrate= 990.9kbits/s speed=0.0136x elapsed=0:02:36.08    \nframe=  129 fps=0.8 q=38.4 size=     256KiB time=00:00:02.11 bitrate= 990.9kbits/s speed=0.0135x elapsed=0:02:36.66    \nframe=  129 fps=0.8 q=38.4 size=     256KiB time=00:00:02.11 bitrate= 990.9kbits/s speed=0.0135x elapsed=0:02:37.27    \nframe=  129 fps=0.8 q=38.4 size=     256KiB time=00:00:02.11 bitrate= 990.9kbits/s speed=0.0134x elapsed=0:02:37.91    \nframe=  129 fps=0.8 q=38.4 size=     256KiB time=00:00:02.11 bitrate= 990.9kbits/s speed=0.0134x elapsed=0:02:38.45    \nframe=  129 fps=0.8 q=38.4 size=     256KiB time=00:00:02.11 bitrate= 990.9kbits/s speed=0.0133x elapsed=0:02:39.01    \nframe=  129 fps=0.8 q=38.4 size=     256KiB time=00:00:02.11 bitrate= 990.9kbits/s speed=0.0133x elapsed=0:02:39.57    \nframe=  130 fps=0.8 q=38.5 size=     512KiB time=00:00:02.13 bitrate=1966.2kbits/s speed=0.0133x elapsed=0:02:40.14    \nframe=  130 fps=0.8 q=38.5 size=     512KiB time=00:00:02.13 bitrate=1966.2kbits/s speed=0.0133x elapsed=0:02:40.66    \nframe=  130 fps=0.8 q=38.5 size=     512KiB time=00:00:02.13 bitrate=1966.2kbits/s speed=0.0132x elapsed=0:02:41.19    \nframe=  130 fps=0.8 q=38.5 size=     512KiB time=00:00:02.13 bitrate=1966.2kbits/s speed=0.0132x elapsed=0:02:41.71    \nframe=  131 fps=0.8 q=33.4 size=     512KiB time=00:00:02.15 bitrate=1951.0kbits/s speed=0.0133x elapsed=0:02:42.22    \nframe=  131 fps=0.8 q=33.4 size=     512KiB time=00:00:02.15 bitrate=1951.0kbits/s speed=0.0132x elapsed=0:02:42.76    \nframe=  131 fps=0.8 q=33.4 size=     512KiB time=00:00:02.15 bitrate=1951.0kbits/s speed=0.0132x elapsed=0:02:43.31    \nframe=  131 fps=0.8 q=33.4 size=     512KiB time=00:00:02.15 bitrate=1951.0kbits/s speed=0.0131x elapsed=0:02:43.86    \nframe=  132 fps=0.8 q=37.3 size=     512KiB time=00:00:02.16 bitrate=1936.0kbits/s speed=0.0132x elapsed=0:02:44.38    \nframe=  132 fps=0.8 q=37.3 size=     512KiB time=00:00:02.16 bitrate=1936.0kbits/s speed=0.0131x elapsed=0:02:44.91    \nframe=  133 fps=0.8 q=38.4 size=     512KiB time=00:00:02.18 bitrate=1921.2kbits/s speed=0.0132x elapsed=0:02:45.46    \nframe=  133 fps=0.8 q=38.4 size=     512KiB time=00:00:02.18 bitrate=1921.2kbits/s speed=0.0132x elapsed=0:02:45.98    \nframe=  133 fps=0.8 q=38.4 size=     512KiB time=00:00:02.18 bitrate=1921.2kbits/s speed=0.0131x elapsed=0:02:46.50    \nframe=  133 fps=0.8 q=38.4 size=     512KiB time=00:00:02.18 bitrate=1921.2kbits/s speed=0.0131x elapsed=0:02:47.02    \nframe=  134 fps=0.8 q=38.4 size=     512KiB time=00:00:02.20 bitrate=1906.7kbits/s speed=0.0131x elapsed=0:02:47.56    \nframe=  134 fps=0.8 q=38.4 size=     512KiB time=00:00:02.20 bitrate=1906.7kbits/s speed=0.0131x elapsed=0:02:48.09    \nframe=  135 fps=0.8 q=38.3 size=     512KiB time=00:00:02.21 bitrate=1892.3kbits/s speed=0.0131x elapsed=0:02:48.62    \nframe=  135 fps=0.8 q=38.3 size=     512KiB time=00:00:02.21 bitrate=1892.3kbits/s speed=0.0131x elapsed=0:02:49.15    \nframe=  136 fps=0.8 q=33.5 size=     512KiB time=00:00:02.23 bitrate=1878.2kbits/s speed=0.0132x elapsed=0:02:49.69    \nframe=  137 fps=0.8 q=37.1 size=     512KiB time=00:00:02.25 bitrate=1864.3kbits/s speed=0.0132x elapsed=0:02:50.24    \nframe=  138 fps=0.8 q=38.2 size=     512KiB time=00:00:02.26 bitrate=1850.6kbits/s speed=0.0133x elapsed=0:02:50.76    \nframe=  139 fps=0.8 q=38.2 size=     512KiB time=00:00:02.28 bitrate=1837.1kbits/s speed=0.0133x elapsed=0:02:51.30    \nframe=  139 fps=0.8 q=38.2 size=     512KiB time=00:00:02.28 bitrate=1837.1kbits/s speed=0.0133x elapsed=0:02:51.82    \nframe=  139 fps=0.8 q=38.2 size=     512KiB time=00:00:02.28 bitrate=1837.1kbits/s speed=0.0132x elapsed=0:02:52.35    \nframe=  139 fps=0.8 q=38.2 size=     512KiB time=00:00:02.28 bitrate=1837.1kbits/s speed=0.0132x elapsed=0:02:52.86    \nframe=  140 fps=0.8 q=39.0 size=     512KiB time=00:00:02.30 bitrate=1823.8kbits/s speed=0.0133x elapsed=0:02:53.38    \nframe=  140 fps=0.8 q=39.0 size=     512KiB time=00:00:02.30 bitrate=1823.8kbits/s speed=0.0132x elapsed=0:02:53.89    \nframe=  141 fps=0.8 q=33.4 size=     512KiB time=00:00:02.31 bitrate=1810.6kbits/s speed=0.0133x elapsed=0:02:54.42    \nframe=  141 fps=0.8 q=33.4 size=     512KiB time=00:00:02.31 bitrate=1810.6kbits/s speed=0.0132x elapsed=0:02:54.95    \nframe=  143 fps=0.8 q=38.6 size=     512KiB time=00:00:02.35 bitrate=1785.0kbits/s speed=0.0134x elapsed=0:02:55.47    \nframe=  143 fps=0.8 q=38.6 size=     512KiB time=00:00:02.35 bitrate=1785.0kbits/s speed=0.0134x elapsed=0:02:55.99    \nframe=  144 fps=0.8 q=38.3 size=     512KiB time=00:00:02.36 bitrate=1772.4kbits/s speed=0.0134x elapsed=0:02:56.52    \nframe=  144 fps=0.8 q=38.3 size=     512KiB time=00:00:02.36 bitrate=1772.4kbits/s speed=0.0134x elapsed=0:02:57.04    \nframe=  145 fps=0.8 q=39.4 size=     512KiB time=00:00:02.38 bitrate=1760.0kbits/s speed=0.0134x elapsed=0:02:57.57    \nframe=  145 fps=0.8 q=39.4 size=     512KiB time=00:00:02.38 bitrate=1760.0kbits/s speed=0.0134x elapsed=0:02:58.09    \nframe=  145 fps=0.8 q=39.4 size=     512KiB time=00:00:02.38 bitrate=1760.0kbits/s speed=0.0133x elapsed=0:02:58.61    \nframe=  146 fps=0.8 q=33.4 size=     512KiB time=00:00:02.40 bitrate=1747.8kbits/s speed=0.0134x elapsed=0:02:59.12    \nframe=  147 fps=0.8 q=37.4 size=     512KiB time=00:00:02.41 bitrate=1735.7kbits/s speed=0.0135x elapsed=0:02:59.66    \nframe=  148 fps=0.8 q=39.0 size=     512KiB time=00:00:02.43 bitrate=1723.8kbits/s speed=0.0135x elapsed=0:03:00.19    \nframe=  148 fps=0.8 q=39.0 size=     512KiB time=00:00:02.43 bitrate=1723.8kbits/s speed=0.0135x elapsed=0:03:00.71    \nframe=  148 fps=0.8 q=39.0 size=     512KiB time=00:00:02.43 bitrate=1723.8kbits/s speed=0.0134x elapsed=0:03:01.24    \nframe=  148 fps=0.8 q=39.0 size=     512KiB time=00:00:02.43 bitrate=1723.8kbits/s speed=0.0134x elapsed=0:03:01.75    \nframe=  148 fps=0.8 q=39.0 size=     512KiB time=00:00:02.43 bitrate=1723.8kbits/s speed=0.0133x elapsed=0:03:02.28    \nframe=  149 fps=0.8 q=38.1 size=     512KiB time=00:00:02.45 bitrate=1712.1kbits/s speed=0.0134x elapsed=0:03:02.81    \nframe=  149 fps=0.8 q=38.1 size=     512KiB time=00:00:02.45 bitrate=1712.1kbits/s speed=0.0134x elapsed=0:03:03.35    \nframe=  149 fps=0.8 q=38.1 size=     512KiB time=00:00:02.45 bitrate=1712.1kbits/s speed=0.0133x elapsed=0:03:03.86    \nframe=  149 fps=0.8 q=38.1 size=     512KiB time=00:00:02.45 bitrate=1712.1kbits/s speed=0.0133x elapsed=0:03:04.38    \nframe=  150 fps=0.8 q=39.4 size=     512KiB time=00:00:02.46 bitrate=1700.5kbits/s speed=0.0133x elapsed=0:03:04.89    \nframe=  151 fps=0.8 q=33.1 size=     512KiB time=00:00:02.48 bitrate=1689.1kbits/s speed=0.0134x elapsed=0:03:05.42    \nframe=  152 fps=0.8 q=37.0 size=     512KiB time=00:00:02.50 bitrate=1677.9kbits/s speed=0.0134x elapsed=0:03:05.96    \nframe=  153 fps=0.8 q=38.4 size=     512KiB time=00:00:02.51 bitrate=1666.8kbits/s speed=0.0135x elapsed=0:03:06.48    \nframe=  153 fps=0.8 q=38.4 size=     512KiB time=00:00:02.51 bitrate=1666.8kbits/s speed=0.0135x elapsed=0:03:07.01    \nframe=  153 fps=0.8 q=38.4 size=     512KiB time=00:00:02.51 bitrate=1666.8kbits/s speed=0.0134x elapsed=0:03:07.54    \nframe=  153 fps=0.8 q=38.4 size=     512KiB time=00:00:02.51 bitrate=1666.8kbits/s speed=0.0134x elapsed=0:03:08.06    \nframe=  153 fps=0.8 q=38.4 size=     512KiB time=00:00:02.51 bitrate=1666.8kbits/s speed=0.0133x elapsed=0:03:08.59    \nframe=  153 fps=0.8 q=38.4 size=     512KiB time=00:00:02.51 bitrate=1666.8kbits/s speed=0.0133x elapsed=0:03:09.12    \nframe=  154 fps=0.8 q=38.4 size=     512KiB time=00:00:02.53 bitrate=1655.8kbits/s speed=0.0134x elapsed=0:03:09.62    \nframe=  155 fps=0.8 q=39.3 size=     512KiB time=00:00:02.55 bitrate=1645.0kbits/s speed=0.0134x elapsed=0:03:10.17    \nframe=  155 fps=0.8 q=39.3 size=     512KiB time=00:00:02.55 bitrate=1645.0kbits/s speed=0.0134x elapsed=0:03:10.74    \nframe=  155 fps=0.8 q=39.3 size=     512KiB time=00:00:02.55 bitrate=1645.0kbits/s speed=0.0133x elapsed=0:03:11.30    \nframe=  156 fps=0.8 q=32.9 size=     512KiB time=00:00:02.56 bitrate=1634.3kbits/s speed=0.0134x elapsed=0:03:11.83    \nframe=  157 fps=0.8 q=36.9 size=     512KiB time=00:00:02.58 bitrate=1623.7kbits/s speed=0.0134x elapsed=0:03:12.36    \nframe=  158 fps=0.8 q=38.5 size=     512KiB time=00:00:02.60 bitrate=1613.3kbits/s speed=0.0135x elapsed=0:03:12.89    \nframe=  158 fps=0.8 q=38.5 size=     512KiB time=00:00:02.60 bitrate=1613.3kbits/s speed=0.0134x elapsed=0:03:13.42    \nframe=  158 fps=0.8 q=38.5 size=     512KiB time=00:00:02.60 bitrate=1613.3kbits/s speed=0.0134x elapsed=0:03:13.94    \nframe=  158 fps=0.8 q=38.5 size=     512KiB time=00:00:02.60 bitrate=1613.3kbits/s speed=0.0134x elapsed=0:03:14.50    \nframe=  158 fps=0.8 q=38.5 size=     512KiB time=00:00:02.60 bitrate=1613.3kbits/s speed=0.0133x elapsed=0:03:15.05    \nframe=  158 fps=0.8 q=38.5 size=     512KiB time=00:00:02.60 bitrate=1613.3kbits/s speed=0.0133x elapsed=0:03:15.57    \nframe=  158 fps=0.8 q=38.5 size=     512KiB time=00:00:02.60 bitrate=1613.3kbits/s speed=0.0133x elapsed=0:03:16.12    \nframe=  159 fps=0.8 q=38.4 size=     512KiB time=00:00:02.61 bitrate=1603.1kbits/s speed=0.0133x elapsed=0:03:16.64    \nframe=  159 fps=0.8 q=38.4 size=     512KiB time=00:00:02.61 bitrate=1603.1kbits/s speed=0.0133x elapsed=0:03:17.17    \nframe=  160 fps=0.8 q=38.5 size=     512KiB time=00:00:02.63 bitrate=1592.9kbits/s speed=0.0133x elapsed=0:03:17.70    \nframe=  161 fps=0.8 q=33.0 size=     512KiB time=00:00:02.65 bitrate=1582.9kbits/s speed=0.0134x elapsed=0:03:18.24    \nframe=  161 fps=0.8 q=33.0 size=     512KiB time=00:00:02.65 bitrate=1582.9kbits/s speed=0.0133x elapsed=0:03:18.76    \nframe=  162 fps=0.8 q=36.7 size=     512KiB time=00:00:02.66 bitrate=1573.0kbits/s speed=0.0134x elapsed=0:03:19.29    \nframe=  162 fps=0.8 q=36.7 size=     512KiB time=00:00:02.66 bitrate=1573.0kbits/s speed=0.0133x elapsed=0:03:19.84    \nframe=  163 fps=0.8 q=38.5 size=     512KiB time=00:00:02.68 bitrate=1563.2kbits/s speed=0.0134x elapsed=0:03:20.36    \nframe=  163 fps=0.8 q=38.5 size=     512KiB time=00:00:02.68 bitrate=1563.2kbits/s speed=0.0134x elapsed=0:03:20.88    \nframe=  163 fps=0.8 q=38.5 size=     512KiB time=00:00:02.68 bitrate=1563.2kbits/s speed=0.0133x elapsed=0:03:21.40    \nframe=  163 fps=0.8 q=38.5 size=     512KiB time=00:00:02.68 bitrate=1563.2kbits/s speed=0.0133x elapsed=0:03:21.91    \nframe=  164 fps=0.8 q=38.2 size=     512KiB time=00:00:02.70 bitrate=1553.6kbits/s speed=0.0133x elapsed=0:03:22.45    \nframe=  164 fps=0.8 q=38.2 size=     512KiB time=00:00:02.70 bitrate=1553.6kbits/s speed=0.0133x elapsed=0:03:22.97    \nframe=  164 fps=0.8 q=38.2 size=     512KiB time=00:00:02.70 bitrate=1553.6kbits/s speed=0.0133x elapsed=0:03:23.52    \nframe=  164 fps=0.8 q=38.2 size=     512KiB time=00:00:02.70 bitrate=1553.6kbits/s speed=0.0132x elapsed=0:03:24.04    \nframe=  164 fps=0.8 q=38.2 size=     512KiB time=00:00:02.70 bitrate=1553.6kbits/s speed=0.0132x elapsed=0:03:24.59    \nframe=  164 fps=0.8 q=38.2 size=     512KiB time=00:00:02.70 bitrate=1553.6kbits/s speed=0.0132x elapsed=0:03:25.13    \nframe=  165 fps=0.8 q=38.6 size=     512KiB time=00:00:02.71 bitrate=1544.0kbits/s speed=0.0132x elapsed=0:03:25.64    \nframe=  165 fps=0.8 q=38.6 size=     512KiB time=00:00:02.71 bitrate=1544.0kbits/s speed=0.0132x elapsed=0:03:26.16    \nframe=  166 fps=0.8 q=33.2 size=     512KiB time=00:00:02.73 bitrate=1534.6kbits/s speed=0.0132x elapsed=0:03:26.69    \nframe=  166 fps=0.8 q=33.2 size=     512KiB time=00:00:02.73 bitrate=1534.6kbits/s speed=0.0132x elapsed=0:03:27.27    \nframe=  166 fps=0.8 q=33.2 size=     512KiB time=00:00:02.73 bitrate=1534.6kbits/s speed=0.0132x elapsed=0:03:27.81    \nframe=  166 fps=0.8 q=33.2 size=     512KiB time=00:00:02.73 bitrate=1534.6kbits/s speed=0.0131x elapsed=0:03:28.33    \nframe=  167 fps=0.8 q=36.8 size=     512KiB time=00:00:02.75 bitrate=1525.3kbits/s speed=0.0132x elapsed=0:03:28.85    \nframe=  168 fps=0.8 q=38.2 size=     512KiB time=00:00:02.76 bitrate=1516.1kbits/s speed=0.0132x elapsed=0:03:29.37    \nframe=  168 fps=0.8 q=38.2 size=     512KiB time=00:00:02.76 bitrate=1516.1kbits/s speed=0.0132x elapsed=0:03:29.90    \nframe=  168 fps=0.8 q=38.2 size=     512KiB time=00:00:02.76 bitrate=1516.1kbits/s speed=0.0131x elapsed=0:03:30.44    \nframe=  168 fps=0.8 q=38.2 size=     512KiB time=00:00:02.76 bitrate=1516.1kbits/s speed=0.0131x elapsed=0:03:30.98    \nframe=  168 fps=0.8 q=38.2 size=     512KiB time=00:00:02.76 bitrate=1516.1kbits/s speed=0.0131x elapsed=0:03:31.51    \nframe=  168 fps=0.8 q=38.2 size=     512KiB time=00:00:02.76 bitrate=1516.1kbits/s speed=0.013x elapsed=0:03:32.04    \nframe=  168 fps=0.8 q=38.2 size=     512KiB time=00:00:02.76 bitrate=1516.1kbits/s speed=0.013x elapsed=0:03:32.58    \nframe=  169 fps=0.8 q=38.2 size=     512KiB time=00:00:02.78 bitrate=1507.1kbits/s speed=0.0131x elapsed=0:03:33.11    \nframe=  169 fps=0.8 q=38.2 size=     512KiB time=00:00:02.78 bitrate=1507.1kbits/s speed=0.013x elapsed=0:03:33.65    \nframe=  169 fps=0.8 q=38.2 size=     512KiB time=00:00:02.78 bitrate=1507.1kbits/s speed=0.013x elapsed=0:03:34.19    \nframe=  169 fps=0.8 q=38.2 size=     512KiB time=00:00:02.78 bitrate=1507.1kbits/s speed=0.013x elapsed=0:03:34.72    \nframe=  169 fps=0.8 q=38.2 size=     512KiB time=00:00:02.78 bitrate=1507.1kbits/s speed=0.0129x elapsed=0:03:35.26    \nframe=  170 fps=0.8 q=38.6 size=     512KiB time=00:00:02.80 bitrate=1498.1kbits/s speed=0.013x elapsed=0:03:35.81    \nframe=  170 fps=0.8 q=38.6 size=     512KiB time=00:00:02.80 bitrate=1498.1kbits/s speed=0.0129x elapsed=0:03:36.34    \nframe=  171 fps=0.8 q=33.1 size=     512KiB time=00:00:02.81 bitrate=1489.2kbits/s speed=0.013x elapsed=0:03:36.91    \nframe=  171 fps=0.8 q=33.1 size=     512KiB time=00:00:02.81 bitrate=1489.2kbits/s speed=0.013x elapsed=0:03:37.42    \nframe=  171 fps=0.8 q=33.1 size=     512KiB time=00:00:02.81 bitrate=1489.2kbits/s speed=0.0129x elapsed=0:03:37.95    \nframe=  171 fps=0.8 q=33.1 size=     512KiB time=00:00:02.81 bitrate=1489.2kbits/s speed=0.0129x elapsed=0:03:38.47    \nframe=  171 fps=0.8 q=33.1 size=     512KiB time=00:00:02.81 bitrate=1489.2kbits/s speed=0.0129x elapsed=0:03:39.01    \nframe=  173 fps=0.8 q=38.2 size=     512KiB time=00:00:02.83 bitrate=1480.5kbits/s speed=0.0129x elapsed=0:03:39.52    \nframe=  173 fps=0.8 q=38.2 size=     512KiB time=00:00:02.85 bitrate=1471.8kbits/s speed=0.013x elapsed=0:03:40.05    \nframe=  173 fps=0.8 q=38.2 size=     512KiB time=00:00:02.85 bitrate=1471.8kbits/s speed=0.0129x elapsed=0:03:40.56    \nframe=  173 fps=0.8 q=38.2 size=     512KiB time=00:00:02.85 bitrate=1471.8kbits/s speed=0.0129x elapsed=0:03:41.09    \nframe=  174 fps=0.8 q=38.2 size=     512KiB time=00:00:02.86 bitrate=1463.3kbits/s speed=0.0129x elapsed=0:03:41.62    \nframe=  174 fps=0.8 q=38.2 size=     512KiB time=00:00:02.86 bitrate=1463.3kbits/s speed=0.0129x elapsed=0:03:42.17    \nframe=  174 fps=0.8 q=38.2 size=     512KiB time=00:00:02.86 bitrate=1463.3kbits/s speed=0.0129x elapsed=0:03:42.71    \nframe=  174 fps=0.8 q=38.2 size=     512KiB time=00:00:02.86 bitrate=1463.3kbits/s speed=0.0128x elapsed=0:03:43.25    \nframe=  174 fps=0.8 q=38.2 size=     512KiB time=00:00:02.86 bitrate=1463.3kbits/s speed=0.0128x elapsed=0:03:43.80    \nframe=  174 fps=0.8 q=38.2 size=     512KiB time=00:00:02.86 bitrate=1463.3kbits/s speed=0.0128x elapsed=0:03:44.34    \nframe=  174 fps=0.8 q=38.2 size=     512KiB time=00:00:02.86 bitrate=1463.3kbits/s speed=0.0127x elapsed=0:03:44.90    \nframe=  174 fps=0.8 q=38.2 size=     512KiB time=00:00:02.86 bitrate=1463.3kbits/s speed=0.0127x elapsed=0:03:45.44    \nframe=  175 fps=0.8 q=38.5 size=     512KiB time=00:00:02.88 bitrate=1454.8kbits/s speed=0.0128x elapsed=0:03:45.99    \nframe=  175 fps=0.8 q=38.5 size=     512KiB time=00:00:02.88 bitrate=1454.8kbits/s speed=0.0127x elapsed=0:03:46.51    \nframe=  176 fps=0.8 q=33.1 size=     512KiB time=00:00:02.90 bitrate=1446.4kbits/s speed=0.0128x elapsed=0:03:47.03    \nframe=  176 fps=0.8 q=33.1 size=     512KiB time=00:00:02.90 bitrate=1446.4kbits/s speed=0.0127x elapsed=0:03:47.55    \nframe=  177 fps=0.8 q=36.9 size=     512KiB time=00:00:02.91 bitrate=1438.2kbits/s speed=0.0128x elapsed=0:03:48.08    \nframe=  178 fps=0.8 q=38.2 size=     512KiB time=00:00:02.93 bitrate=1430.0kbits/s speed=0.0128x elapsed=0:03:48.60    \nframe=  178 fps=0.8 q=38.2 size=     512KiB time=00:00:02.93 bitrate=1430.0kbits/s speed=0.0128x elapsed=0:03:49.12    \nframe=  179 fps=0.8 q=38.3 size=     512KiB time=00:00:02.95 bitrate=1421.9kbits/s speed=0.0128x elapsed=0:03:49.65    \nframe=  179 fps=0.8 q=38.3 size=     512KiB time=00:00:02.95 bitrate=1421.9kbits/s speed=0.0128x elapsed=0:03:50.15    \nframe=  180 fps=0.8 q=38.5 size=     512KiB time=00:00:02.96 bitrate=1413.9kbits/s speed=0.0129x elapsed=0:03:50.68    \nframe=  180 fps=0.8 q=38.5 size=     512KiB time=00:00:02.96 bitrate=1413.9kbits/s speed=0.0128x elapsed=0:03:51.26    \nframe=  181 fps=0.8 q=33.2 size=     512KiB time=00:00:02.98 bitrate=1406.0kbits/s speed=0.0129x elapsed=0:03:51.80    \nframe=  182 fps=0.8 q=36.8 size=     512KiB time=00:00:03.00 bitrate=1398.2kbits/s speed=0.0129x elapsed=0:03:52.33    \nframe=  183 fps=0.8 q=38.3 size=     512KiB time=00:00:03.01 bitrate=1390.5kbits/s speed=0.013x elapsed=0:03:52.86    \nframe=  183 fps=0.8 q=38.3 size=     512KiB time=00:00:03.01 bitrate=1390.5kbits/s speed=0.0129x elapsed=0:03:53.38    \nframe=  183 fps=0.8 q=38.3 size=     512KiB time=00:00:03.01 bitrate=1390.5kbits/s speed=0.0129x elapsed=0:03:53.90    \nframe=  184 fps=0.8 q=38.3 size=     512KiB time=00:00:03.03 bitrate=1382.9kbits/s speed=0.0129x elapsed=0:03:54.43    \nframe=  184 fps=0.8 q=38.3 size=     512KiB time=00:00:03.03 bitrate=1382.9kbits/s speed=0.0129x elapsed=0:03:54.96    \nframe=  184 fps=0.8 q=38.3 size=     512KiB time=00:00:03.03 bitrate=1382.9kbits/s speed=0.0129x elapsed=0:03:55.49    \nframe=  184 fps=0.8 q=38.3 size=     512KiB time=00:00:03.03 bitrate=1382.9kbits/s speed=0.0129x elapsed=0:03:56.00    \nframe=  184 fps=0.8 q=38.3 size=     512KiB time=00:00:03.03 bitrate=1382.9kbits/s speed=0.0128x elapsed=0:03:56.52    \nframe=  185 fps=0.8 q=39.2 size=     512KiB time=00:00:03.05 bitrate=1375.3kbits/s speed=0.0129x elapsed=0:03:57.05    \nframe=  185 fps=0.8 q=39.2 size=     512KiB time=00:00:03.05 bitrate=1375.3kbits/s speed=0.0128x elapsed=0:03:57.58    \nframe=  186 fps=0.8 q=33.1 size=     512KiB time=00:00:03.06 bitrate=1367.8kbits/s speed=0.0129x elapsed=0:03:58.12    \nframe=  187 fps=0.8 q=37.0 size=     512KiB time=00:00:03.08 bitrate=1360.4kbits/s speed=0.0129x elapsed=0:03:58.64    \nframe=  187 fps=0.8 q=37.0 size=     512KiB time=00:00:03.08 bitrate=1360.4kbits/s speed=0.0129x elapsed=0:03:59.16    \nframe=  187 fps=0.8 q=37.0 size=     512KiB time=00:00:03.08 bitrate=1360.4kbits/s speed=0.0129x elapsed=0:03:59.68    \nframe=  188 fps=0.8 q=38.2 size=     512KiB time=00:00:03.10 bitrate=1353.1kbits/s speed=0.0129x elapsed=0:04:00.23    \nframe=  188 fps=0.8 q=38.2 size=     512KiB time=00:00:03.10 bitrate=1353.1kbits/s speed=0.0129x elapsed=0:04:00.75    \nframe=  188 fps=0.8 q=38.2 size=     512KiB time=00:00:03.10 bitrate=1353.1kbits/s speed=0.0128x elapsed=0:04:01.26    \nframe=  189 fps=0.8 q=38.2 size=     512KiB time=00:00:03.11 bitrate=1345.9kbits/s speed=0.0129x elapsed=0:04:01.81    \nframe=  189 fps=0.8 q=38.2 size=     512KiB time=00:00:03.11 bitrate=1345.9kbits/s speed=0.0129x elapsed=0:04:02.34    \nframe=  189 fps=0.8 q=38.2 size=     512KiB time=00:00:03.11 bitrate=1345.9kbits/s speed=0.0128x elapsed=0:04:02.86    \nframe=  189 fps=0.8 q=38.2 size=     512KiB time=00:00:03.11 bitrate=1345.9kbits/s speed=0.0128x elapsed=0:04:03.37    \nframe=  190 fps=0.8 q=38.3 size=     512KiB time=00:00:03.13 bitrate=1338.7kbits/s speed=0.0128x elapsed=0:04:03.89    \nframe=  191 fps=0.8 q=33.2 size=     512KiB time=00:00:03.15 bitrate=1331.6kbits/s speed=0.0129x elapsed=0:04:04.43    \nframe=  191 fps=0.8 q=33.2 size=     512KiB time=00:00:03.15 bitrate=1331.6kbits/s speed=0.0129x elapsed=0:04:04.95    \nframe=  192 fps=0.8 q=37.0 size=     512KiB time=00:00:03.16 bitrate=1324.6kbits/s speed=0.0129x elapsed=0:04:05.47    \nframe=  192 fps=0.8 q=37.0 size=     512KiB time=00:00:03.16 bitrate=1324.6kbits/s speed=0.0129x elapsed=0:04:05.99    \nframe=  193 fps=0.8 q=38.3 size=     512KiB time=00:00:03.18 bitrate=1317.7kbits/s speed=0.0129x elapsed=0:04:06.50    \nframe=  193 fps=0.8 q=38.3 size=     512KiB time=00:00:03.18 bitrate=1317.7kbits/s speed=0.0129x elapsed=0:04:07.03    \nframe=  193 fps=0.8 q=38.3 size=     512KiB time=00:00:03.18 bitrate=1317.7kbits/s speed=0.0129x elapsed=0:04:07.58    \nframe=  193 fps=0.8 q=38.3 size=     512KiB time=00:00:03.18 bitrate=1317.7kbits/s speed=0.0128x elapsed=0:04:08.10    \nframe=  193 fps=0.8 q=38.3 size=     512KiB time=00:00:03.18 bitrate=1317.7kbits/s speed=0.0128x elapsed=0:04:08.62    \nframe=  193 fps=0.8 q=38.3 size=     512KiB time=00:00:03.18 bitrate=1317.7kbits/s speed=0.0128x elapsed=0:04:09.15    \nframe=  194 fps=0.8 q=38.3 size=     768KiB time=00:00:03.20 bitrate=1966.2kbits/s speed=0.0128x elapsed=0:04:09.66    \nframe=  194 fps=0.8 q=38.3 size=     768KiB time=00:00:03.20 bitrate=1966.2kbits/s speed=0.0128x elapsed=0:04:10.20    \nframe=  194 fps=0.8 q=38.3 size=     768KiB time=00:00:03.20 bitrate=1966.2kbits/s speed=0.0128x elapsed=0:04:10.72    \nframe=  195 fps=0.8 q=38.4 size=     768KiB time=00:00:03.21 bitrate=1956.0kbits/s speed=0.0128x elapsed=0:04:11.25    \nframe=  196 fps=0.8 q=33.1 size=     768KiB time=00:00:03.23 bitrate=1945.9kbits/s speed=0.0128x elapsed=0:04:11.75    \nframe=  196 fps=0.8 q=33.1 size=     768KiB time=00:00:03.23 bitrate=1945.9kbits/s speed=0.0128x elapsed=0:04:12.27    \nframe=  196 fps=0.8 q=33.1 size=     768KiB time=00:00:03.23 bitrate=1945.9kbits/s speed=0.0128x elapsed=0:04:12.78    \nframe=  196 fps=0.8 q=33.1 size=     768KiB time=00:00:03.23 bitrate=1945.9kbits/s speed=0.0128x elapsed=0:04:13.31    \nframe=  196 fps=0.8 q=33.1 size=     768KiB time=00:00:03.23 bitrate=1945.9kbits/s speed=0.0127x elapsed=0:04:13.83    \nframe=  197 fps=0.8 q=37.0 size=     768KiB time=00:00:03.25 bitrate=1935.9kbits/s speed=0.0128x elapsed=0:04:14.35    \nframe=  197 fps=0.8 q=37.0 size=     768KiB time=00:00:03.25 bitrate=1935.9kbits/s speed=0.0128x elapsed=0:04:14.89    \nframe=  198 fps=0.8 q=38.3 size=     768KiB time=00:00:03.26 bitrate=1926.1kbits/s speed=0.0128x elapsed=0:04:15.42    \nframe=  198 fps=0.8 q=38.3 size=     768KiB time=00:00:03.26 bitrate=1926.1kbits/s speed=0.0128x elapsed=0:04:15.92    \nframe=  198 fps=0.8 q=38.3 size=     768KiB time=00:00:03.26 bitrate=1926.1kbits/s speed=0.0127x elapsed=0:04:16.45    \nframe=  199 fps=0.8 q=38.3 size=     768KiB time=00:00:03.28 bitrate=1916.3kbits/s speed=0.0128x elapsed=0:04:16.97    \nframe=  199 fps=0.8 q=38.3 size=     768KiB time=00:00:03.28 bitrate=1916.3kbits/s speed=0.0128x elapsed=0:04:17.49    \nframe=  199 fps=0.8 q=38.3 size=     768KiB time=00:00:03.28 bitrate=1916.3kbits/s speed=0.0127x elapsed=0:04:18.02    \nframe=  199 fps=0.8 q=38.3 size=     768KiB time=00:00:03.28 bitrate=1916.3kbits/s speed=0.0127x elapsed=0:04:18.59    \nframe=  200 fps=0.8 q=38.5 size=     768KiB time=00:00:03.30 bitrate=1906.6kbits/s speed=0.0127x elapsed=0:04:19.14    \nframe=  200 fps=0.8 q=38.5 size=     768KiB time=00:00:03.30 bitrate=1906.6kbits/s speed=0.0127x elapsed=0:04:19.71    \nframe=  200 fps=0.8 q=38.5 size=     768KiB time=00:00:03.30 bitrate=1906.6kbits/s speed=0.0127x elapsed=0:04:20.27    \nframe=  200 fps=0.8 q=38.5 size=     768KiB time=00:00:03.30 bitrate=1906.6kbits/s speed=0.0127x elapsed=0:04:20.81    \nframe=  201 fps=0.8 q=32.8 size=     768KiB time=00:00:03.31 bitrate=1897.0kbits/s speed=0.0127x elapsed=0:04:21.34    \nframe=  201 fps=0.8 q=32.8 size=     768KiB time=00:00:03.31 bitrate=1897.0kbits/s speed=0.0127x elapsed=0:04:21.86    \nframe=  201 fps=0.8 q=32.8 size=     768KiB time=00:00:03.31 bitrate=1897.0kbits/s speed=0.0126x elapsed=0:04:22.44    \nframe=  202 fps=0.8 q=36.7 size=     768KiB time=00:00:03.33 bitrate=1887.5kbits/s speed=0.0127x elapsed=0:04:22.99    \nframe=  202 fps=0.8 q=36.7 size=     768KiB time=00:00:03.33 bitrate=1887.5kbits/s speed=0.0126x elapsed=0:04:23.52    \nframe=  202 fps=0.8 q=36.7 size=     768KiB time=00:00:03.33 bitrate=1887.5kbits/s speed=0.0126x elapsed=0:04:24.12    \nframe=  202 fps=0.8 q=36.7 size=     768KiB time=00:00:03.33 bitrate=1887.5kbits/s speed=0.0126x elapsed=0:04:24.75    \nframe=  202 fps=0.8 q=36.7 size=     768KiB time=00:00:03.33 bitrate=1887.5kbits/s speed=0.0126x elapsed=0:04:25.29    \nframe=  202 fps=0.8 q=36.7 size=     768KiB time=00:00:03.33 bitrate=1887.5kbits/s speed=0.0125x elapsed=0:04:25.87    \nframe=  202 fps=0.8 q=36.7 size=     768KiB time=00:00:03.33 bitrate=1887.5kbits/s speed=0.0125x elapsed=0:04:26.46    \nframe=  202 fps=0.8 q=36.7 size=     768KiB time=00:00:03.33 bitrate=1887.5kbits/s speed=0.0125x elapsed=0:04:27.06    \nframe=  202 fps=0.8 q=36.7 size=     768KiB time=00:00:03.33 bitrate=1887.5kbits/s speed=0.0125x elapsed=0:04:27.66    \nframe=  202 fps=0.8 q=36.7 size=     768KiB time=00:00:03.33 bitrate=1887.5kbits/s speed=0.0124x elapsed=0:04:28.26    \nframe=  203 fps=0.8 q=38.1 size=     768KiB time=00:00:03.35 bitrate=1878.2kbits/s speed=0.0125x elapsed=0:04:28.78    \nframe=  203 fps=0.8 q=38.1 size=     768KiB time=00:00:03.35 bitrate=1878.2kbits/s speed=0.0124x elapsed=0:04:29.40    \nframe=  203 fps=0.8 q=38.1 size=     768KiB time=00:00:03.35 bitrate=1878.2kbits/s speed=0.0124x elapsed=0:04:30.04    \nframe=  203 fps=0.7 q=38.1 size=     768KiB time=00:00:03.35 bitrate=1878.2kbits/s speed=0.0124x elapsed=0:04:30.70    \nframe=  203 fps=0.7 q=38.1 size=     768KiB time=00:00:03.35 bitrate=1878.2kbits/s speed=0.0123x elapsed=0:04:31.31    \nframe=  203 fps=0.7 q=38.1 size=     768KiB time=00:00:03.35 bitrate=1878.2kbits/s speed=0.0123x elapsed=0:04:31.88    \nframe=  204 fps=0.7 q=38.1 size=     768KiB time=00:00:03.36 bitrate=1868.9kbits/s speed=0.0124x elapsed=0:04:32.47    \nframe=  204 fps=0.7 q=38.1 size=     768KiB time=00:00:03.36 bitrate=1868.9kbits/s speed=0.0123x elapsed=0:04:33.04    \nframe=  204 fps=0.7 q=38.1 size=     768KiB time=00:00:03.36 bitrate=1868.9kbits/s speed=0.0123x elapsed=0:04:33.59    \nframe=  204 fps=0.7 q=38.1 size=     768KiB time=00:00:03.36 bitrate=1868.9kbits/s speed=0.0123x elapsed=0:04:34.16    \nframe=  204 fps=0.7 q=38.1 size=     768KiB time=00:00:03.36 bitrate=1868.9kbits/s speed=0.0123x elapsed=0:04:34.69    \nframe=  204 fps=0.7 q=38.1 size=     768KiB time=00:00:03.36 bitrate=1868.9kbits/s speed=0.0122x elapsed=0:04:35.23    \nframe=  204 fps=0.7 q=38.1 size=     768KiB time=00:00:03.36 bitrate=1868.9kbits/s speed=0.0122x elapsed=0:04:35.81    \nframe=  204 fps=0.7 q=38.1 size=     768KiB time=00:00:03.36 bitrate=1868.9kbits/s speed=0.0122x elapsed=0:04:36.36    \nframe=  204 fps=0.7 q=38.1 size=     768KiB time=00:00:03.36 bitrate=1868.9kbits/s speed=0.0122x elapsed=0:04:36.87    \nframe=  204 fps=0.7 q=38.1 size=     768KiB time=00:00:03.36 bitrate=1868.9kbits/s speed=0.0121x elapsed=0:04:37.40    \nframe=  204 fps=0.7 q=38.1 size=     768KiB time=00:00:03.36 bitrate=1868.9kbits/s speed=0.0121x elapsed=0:04:37.95    \nframe=  205 fps=0.7 q=38.0 size=     768KiB time=00:00:03.38 bitrate=1859.6kbits/s speed=0.0121x elapsed=0:04:38.50    \nframe=  206 fps=0.7 q=32.6 size=     768KiB time=00:00:03.40 bitrate=1850.5kbits/s speed=0.0122x elapsed=0:04:39.03    \nframe=  206 fps=0.7 q=32.6 size=     768KiB time=00:00:03.40 bitrate=1850.5kbits/s speed=0.0122x elapsed=0:04:39.59    \nframe=  206 fps=0.7 q=32.6 size=     768KiB time=00:00:03.40 bitrate=1850.5kbits/s speed=0.0121x elapsed=0:04:40.11    \nframe=  207 fps=0.7 q=36.7 size=     768KiB time=00:00:03.41 bitrate=1841.5kbits/s speed=0.0122x elapsed=0:04:40.64    \nframe=  208 fps=0.7 q=38.0 size=     768KiB time=00:00:03.43 bitrate=1832.6kbits/s speed=0.0122x elapsed=0:04:41.19    \nframe=  208 fps=0.7 q=38.0 size=     768KiB time=00:00:03.43 bitrate=1832.6kbits/s speed=0.0122x elapsed=0:04:41.72    \nframe=  208 fps=0.7 q=38.0 size=     768KiB time=00:00:03.43 bitrate=1832.6kbits/s speed=0.0122x elapsed=0:04:42.24    \nframe=  208 fps=0.7 q=38.0 size=     768KiB time=00:00:03.43 bitrate=1832.6kbits/s speed=0.0121x elapsed=0:04:42.77    \nframe=  208 fps=0.7 q=38.0 size=     768KiB time=00:00:03.43 bitrate=1832.6kbits/s speed=0.0121x elapsed=0:04:43.29    \nframe=  208 fps=0.7 q=38.0 size=     768KiB time=00:00:03.43 bitrate=1832.6kbits/s speed=0.0121x elapsed=0:04:43.83    \nframe=  209 fps=0.7 q=37.8 size=     768KiB time=00:00:03.45 bitrate=1823.7kbits/s speed=0.0121x elapsed=0:04:44.39    \nframe=  209 fps=0.7 q=37.8 size=     768KiB time=00:00:03.45 bitrate=1823.7kbits/s speed=0.0121x elapsed=0:04:44.93    \nframe=  209 fps=0.7 q=37.8 size=     768KiB time=00:00:03.45 bitrate=1823.7kbits/s speed=0.0121x elapsed=0:04:45.47    \nframe=  210 fps=0.7 q=38.1 size=     768KiB time=00:00:03.46 bitrate=1814.9kbits/s speed=0.0121x elapsed=0:04:46.01    \nframe=  210 fps=0.7 q=38.1 size=     768KiB time=00:00:03.46 bitrate=1814.9kbits/s speed=0.0121x elapsed=0:04:46.58    \nframe=  210 fps=0.7 q=38.1 size=     768KiB time=00:00:03.46 bitrate=1814.9kbits/s speed=0.0121x elapsed=0:04:47.12    \nframe=  211 fps=0.7 q=32.7 size=     768KiB time=00:00:03.48 bitrate=1806.3kbits/s speed=0.0121x elapsed=0:04:47.62    \nframe=  211 fps=0.7 q=32.7 size=     768KiB time=00:00:03.48 bitrate=1806.3kbits/s speed=0.0121x elapsed=0:04:48.15    \nframe=  212 fps=0.7 q=36.5 size=     768KiB time=00:00:03.50 bitrate=1797.7kbits/s speed=0.0121x elapsed=0:04:48.66    \nframe=  213 fps=0.7 q=37.6 size=     768KiB time=00:00:03.50 bitrate=1797.7kbits/s speed=0.0121x elapsed=0:04:49.17    \nframe=  213 fps=0.7 q=37.6 size=     768KiB time=00:00:03.51 bitrate=1789.1kbits/s speed=0.0121x elapsed=0:04:49.69    \nframe=  213 fps=0.7 q=37.6 size=     768KiB time=00:00:03.51 bitrate=1789.1kbits/s speed=0.0121x elapsed=0:04:50.20    \nframe=  214 fps=0.7 q=37.7 size=     768KiB time=00:00:03.53 bitrate=1780.7kbits/s speed=0.0122x elapsed=0:04:50.73    \nframe=  214 fps=0.7 q=37.7 size=     768KiB time=00:00:03.53 bitrate=1780.7kbits/s speed=0.0121x elapsed=0:04:51.26    \nframe=  214 fps=0.7 q=37.7 size=     768KiB time=00:00:03.53 bitrate=1780.7kbits/s speed=0.0121x elapsed=0:04:51.79    \nframe=  214 fps=0.7 q=37.7 size=     768KiB time=00:00:03.53 bitrate=1780.7kbits/s speed=0.0121x elapsed=0:04:52.30    \nframe=  214 fps=0.7 q=37.7 size=     768KiB time=00:00:03.53 bitrate=1780.7kbits/s speed=0.0121x elapsed=0:04:52.83    \nframe=  214 fps=0.7 q=37.7 size=     768KiB time=00:00:03.53 bitrate=1780.7kbits/s speed=0.012x elapsed=0:04:53.35    \nframe=  214 fps=0.7 q=37.7 size=     768KiB time=00:00:03.53 bitrate=1780.7kbits/s speed=0.012x elapsed=0:04:53.89    \nframe=  215 fps=0.7 q=37.9 size=     768KiB time=00:00:03.55 bitrate=1772.3kbits/s speed=0.0121x elapsed=0:04:54.40    \nframe=  215 fps=0.7 q=37.9 size=     768KiB time=00:00:03.55 bitrate=1772.3kbits/s speed=0.012x elapsed=0:04:54.93    \nframe=  215 fps=0.7 q=37.9 size=     768KiB time=00:00:03.55 bitrate=1772.3kbits/s speed=0.012x elapsed=0:04:55.46    \nframe=  217 fps=0.7 q=36.6 size=     768KiB time=00:00:03.58 bitrate=1755.9kbits/s speed=0.0121x elapsed=0:04:55.99    \nframe=  217 fps=0.7 q=36.6 size=     768KiB time=00:00:03.58 bitrate=1755.9kbits/s speed=0.0121x elapsed=0:04:56.50    \nframe=  217 fps=0.7 q=36.6 size=     768KiB time=00:00:03.58 bitrate=1755.9kbits/s speed=0.0121x elapsed=0:04:57.04    \nframe=  217 fps=0.7 q=36.6 size=     768KiB time=00:00:03.58 bitrate=1755.9kbits/s speed=0.012x elapsed=0:04:57.55    \nframe=  217 fps=0.7 q=36.6 size=     768KiB time=00:00:03.58 bitrate=1755.9kbits/s speed=0.012x elapsed=0:04:58.09    \nframe=  218 fps=0.7 q=37.7 size=     768KiB time=00:00:03.60 bitrate=1747.7kbits/s speed=0.0121x elapsed=0:04:58.61    \nframe=  218 fps=0.7 q=37.7 size=     768KiB time=00:00:03.60 bitrate=1747.7kbits/s speed=0.012x elapsed=0:04:59.12    \nframe=  219 fps=0.7 q=37.4 size=     768KiB time=00:00:03.61 bitrate=1739.7kbits/s speed=0.0121x elapsed=0:04:59.65    \nframe=  219 fps=0.7 q=37.4 size=     768KiB time=00:00:03.61 bitrate=1739.7kbits/s speed=0.012x elapsed=0:05:00.18    \nframe=  219 fps=0.7 q=37.4 size=     768KiB time=00:00:03.61 bitrate=1739.7kbits/s speed=0.012x elapsed=0:05:00.74    \nframe=  221 fps=0.7 q=32.1 size=     768KiB time=00:00:03.65 bitrate=1723.8kbits/s speed=0.0121x elapsed=0:05:01.25    \nframe=  221 fps=0.7 q=32.1 size=     768KiB time=00:00:03.65 bitrate=1723.8kbits/s speed=0.0121x elapsed=0:05:01.77    \nframe=  221 fps=0.7 q=32.1 size=     768KiB time=00:00:03.65 bitrate=1723.8kbits/s speed=0.0121x elapsed=0:05:02.29    \nframe=  221 fps=0.7 q=32.1 size=     768KiB time=00:00:03.65 bitrate=1723.8kbits/s speed=0.0121x elapsed=0:05:02.83    \nframe=  222 fps=0.7 q=36.0 size=     768KiB time=00:00:03.66 bitrate=1715.9kbits/s speed=0.0121x elapsed=0:05:03.37    \nframe=  222 fps=0.7 q=36.0 size=     768KiB time=00:00:03.66 bitrate=1715.9kbits/s speed=0.0121x elapsed=0:05:03.89    \nframe=  223 fps=0.7 q=37.6 size=     768KiB time=00:00:03.68 bitrate=1708.2kbits/s speed=0.0121x elapsed=0:05:04.40    \nframe=  223 fps=0.7 q=37.6 size=     768KiB time=00:00:03.68 bitrate=1708.2kbits/s speed=0.0121x elapsed=0:05:04.95    \nframe=  223 fps=0.7 q=37.6 size=     768KiB time=00:00:03.68 bitrate=1708.2kbits/s speed=0.0121x elapsed=0:05:05.50    \nframe=  223 fps=0.7 q=37.6 size=     768KiB time=00:00:03.68 bitrate=1708.2kbits/s speed=0.012x elapsed=0:05:06.08    \nframe=  224 fps=0.7 q=37.3 size=     768KiB time=00:00:03.70 bitrate=1700.5kbits/s speed=0.0121x elapsed=0:05:06.66    \nframe=  224 fps=0.7 q=37.3 size=     768KiB time=00:00:03.70 bitrate=1700.5kbits/s speed=0.012x elapsed=0:05:07.26    \nframe=  225 fps=0.7 q=37.9 size=     768KiB time=00:00:03.71 bitrate=1692.9kbits/s speed=0.0121x elapsed=0:05:07.81    \nframe=  225 fps=0.7 q=37.9 size=     768KiB time=00:00:03.71 bitrate=1692.9kbits/s speed=0.0121x elapsed=0:05:08.33    \nframe=  225 fps=0.7 q=37.9 size=     768KiB time=00:00:03.71 bitrate=1692.9kbits/s speed=0.012x elapsed=0:05:08.87    \nframe=  225 fps=0.7 q=37.9 size=     768KiB time=00:00:03.71 bitrate=1692.9kbits/s speed=0.012x elapsed=0:05:09.40    \nframe=  225 fps=0.7 q=37.9 size=     768KiB time=00:00:03.71 bitrate=1692.9kbits/s speed=0.012x elapsed=0:05:09.98    \nframe=  226 fps=0.7 q=32.1 size=     768KiB time=00:00:03.73 bitrate=1685.3kbits/s speed=0.012x elapsed=0:05:10.50    \nframe=  226 fps=0.7 q=32.1 size=     768KiB time=00:00:03.73 bitrate=1685.3kbits/s speed=0.012x elapsed=0:05:11.05    \nframe=  227 fps=0.7 q=35.9 size=     768KiB time=00:00:03.75 bitrate=1677.8kbits/s speed=0.012x elapsed=0:05:11.58    \nframe=  227 fps=0.7 q=35.9 size=     768KiB time=00:00:03.75 bitrate=1677.8kbits/s speed=0.012x elapsed=0:05:12.14    \nframe=  227 fps=0.7 q=35.9 size=     768KiB time=00:00:03.75 bitrate=1677.8kbits/s speed=0.012x elapsed=0:05:12.67    \nframe=  227 fps=0.7 q=35.9 size=     768KiB time=00:00:03.75 bitrate=1677.8kbits/s speed=0.012x elapsed=0:05:13.19    \nframe=  227 fps=0.7 q=35.9 size=     768KiB time=00:00:03.75 bitrate=1677.8kbits/s speed=0.012x elapsed=0:05:13.71    \nframe=  227 fps=0.7 q=35.9 size=     768KiB time=00:00:03.75 bitrate=1677.8kbits/s speed=0.0119x elapsed=0:05:14.24    \nframe=  227 fps=0.7 q=35.9 size=     768KiB time=00:00:03.75 bitrate=1677.8kbits/s speed=0.0119x elapsed=0:05:14.81    \nframe=  228 fps=0.7 q=37.0 size=     768KiB time=00:00:03.76 bitrate=1670.4kbits/s speed=0.0119x elapsed=0:05:15.42    \nframe=  228 fps=0.7 q=37.0 size=     768KiB time=00:00:03.76 bitrate=1670.4kbits/s speed=0.0119x elapsed=0:05:15.98    \nframe=  228 fps=0.7 q=37.0 size=     768KiB time=00:00:03.76 bitrate=1670.4kbits/s speed=0.0119x elapsed=0:05:16.51    \nframe=  228 fps=0.7 q=37.0 size=     768KiB time=00:00:03.76 bitrate=1670.4kbits/s speed=0.0119x elapsed=0:05:17.05    \nframe=  228 fps=0.7 q=37.0 size=     768KiB time=00:00:03.76 bitrate=1670.4kbits/s speed=0.0119x elapsed=0:05:17.59    \nframe=  229 fps=0.7 q=36.7 size=     768KiB time=00:00:03.78 bitrate=1663.0kbits/s speed=0.0119x elapsed=0:05:18.14    \nframe=  229 fps=0.7 q=36.7 size=     768KiB time=00:00:03.78 bitrate=1663.0kbits/s speed=0.0119x elapsed=0:05:18.67    \nframe=  229 fps=0.7 q=36.7 size=     768KiB time=00:00:03.78 bitrate=1663.0kbits/s speed=0.0119x elapsed=0:05:19.22    \nframe=  229 fps=0.7 q=36.7 size=     768KiB time=00:00:03.78 bitrate=1663.0kbits/s speed=0.0118x elapsed=0:05:19.75    \nframe=  229 fps=0.7 q=36.7 size=     768KiB time=00:00:03.78 bitrate=1663.0kbits/s speed=0.0118x elapsed=0:05:20.32    \nframe=  229 fps=0.7 q=36.7 size=     768KiB time=00:00:03.78 bitrate=1663.0kbits/s speed=0.0118x elapsed=0:05:20.90    \nframe=  230 fps=0.7 q=36.8 size=     768KiB time=00:00:03.80 bitrate=1655.7kbits/s speed=0.0118x elapsed=0:05:21.43    \nframe=  231 fps=0.7 q=32.5 size=     768KiB time=00:00:03.81 bitrate=1648.5kbits/s speed=0.0119x elapsed=0:05:21.99    \nframe=  231 fps=0.7 q=32.5 size=     768KiB time=00:00:03.81 bitrate=1648.5kbits/s speed=0.0118x elapsed=0:05:22.52    \nframe=  231 fps=0.7 q=32.5 size=     768KiB time=00:00:03.81 bitrate=1648.5kbits/s speed=0.0118x elapsed=0:05:23.05    \nframe=  231 fps=0.7 q=32.5 size=     768KiB time=00:00:03.81 bitrate=1648.5kbits/s speed=0.0118x elapsed=0:05:23.63    \nframe=  231 fps=0.7 q=32.5 size=     768KiB time=00:00:03.81 bitrate=1648.5kbits/s speed=0.0118x elapsed=0:05:24.18    \nframe=  231 fps=0.7 q=32.5 size=     768KiB time=00:00:03.81 bitrate=1648.5kbits/s speed=0.0118x elapsed=0:05:24.73    \nframe=  232 fps=0.7 q=36.3 size=     768KiB time=00:00:03.83 bitrate=1641.3kbits/s speed=0.0118x elapsed=0:05:25.27    \nframe=  232 fps=0.7 q=36.3 size=     768KiB time=00:00:03.83 bitrate=1641.3kbits/s speed=0.0118x elapsed=0:05:25.85    \nframe=  232 fps=0.7 q=36.3 size=     768KiB time=00:00:03.83 bitrate=1641.3kbits/s speed=0.0117x elapsed=0:05:26.40    \nframe=  233 fps=0.7 q=37.8 size=     768KiB time=00:00:03.85 bitrate=1634.2kbits/s speed=0.0118x elapsed=0:05:27.00    \nframe=  233 fps=0.7 q=37.8 size=     768KiB time=00:00:03.85 bitrate=1634.2kbits/s speed=0.0118x elapsed=0:05:27.56    \nframe=  233 fps=0.7 q=37.8 size=     768KiB time=00:00:03.85 bitrate=1634.2kbits/s speed=0.0117x elapsed=0:05:28.12    \nframe=  233 fps=0.7 q=37.8 size=     768KiB time=00:00:03.85 bitrate=1634.2kbits/s speed=0.0117x elapsed=0:05:28.67    \nframe=  233 fps=0.7 q=37.8 size=     768KiB time=00:00:03.85 bitrate=1634.2kbits/s speed=0.0117x elapsed=0:05:29.21    \nframe=  233 fps=0.7 q=37.8 size=     768KiB time=00:00:03.85 bitrate=1634.2kbits/s speed=0.0117x elapsed=0:05:29.79    \nframe=  233 fps=0.7 q=37.8 size=     768KiB time=00:00:03.85 bitrate=1634.2kbits/s speed=0.0117x elapsed=0:05:30.35    \nframe=  233 fps=0.7 q=37.8 size=     768KiB time=00:00:03.85 bitrate=1634.2kbits/s speed=0.0116x elapsed=0:05:30.92    \nframe=  233 fps=0.7 q=37.8 size=     768KiB time=00:00:03.85 bitrate=1634.2kbits/s speed=0.0116x elapsed=0:05:31.48    \nframe=  233 fps=0.7 q=37.8 size=     768KiB time=00:00:03.85 bitrate=1634.2kbits/s speed=0.0116x elapsed=0:05:32.02    \nframe=  234 fps=0.7 q=37.5 size=     768KiB time=00:00:03.86 bitrate=1627.2kbits/s speed=0.0116x elapsed=0:05:32.61    \nframe=  234 fps=0.7 q=37.5 size=     768KiB time=00:00:03.86 bitrate=1627.2kbits/s speed=0.0116x elapsed=0:05:33.16    \nframe=  234 fps=0.7 q=37.5 size=     768KiB time=00:00:03.86 bitrate=1627.2kbits/s speed=0.0116x elapsed=0:05:33.70    \nframe=  235 fps=0.7 q=38.2 size=     768KiB time=00:00:03.88 bitrate=1620.2kbits/s speed=0.0116x elapsed=0:05:34.24    \nframe=  235 fps=0.7 q=38.2 size=     768KiB time=00:00:03.88 bitrate=1620.2kbits/s speed=0.0116x elapsed=0:05:34.81    \nframe=  235 fps=0.7 q=38.2 size=     768KiB time=00:00:03.88 bitrate=1620.2kbits/s speed=0.0116x elapsed=0:05:35.36    \nframe=  235 fps=0.7 q=38.2 size=     768KiB time=00:00:03.88 bitrate=1620.2kbits/s speed=0.0116x elapsed=0:05:35.90    \nframe=  236 fps=0.7 q=32.4 size=     768KiB time=00:00:03.90 bitrate=1613.3kbits/s speed=0.0116x elapsed=0:05:36.49    \nframe=  236 fps=0.7 q=32.4 size=     768KiB time=00:00:03.90 bitrate=1613.3kbits/s speed=0.0116x elapsed=0:05:37.10    \nframe=  236 fps=0.7 q=32.4 size=     768KiB time=00:00:03.90 bitrate=1613.3kbits/s speed=0.0115x elapsed=0:05:37.66    \nframe=  236 fps=0.7 q=32.4 size=     768KiB time=00:00:03.90 bitrate=1613.3kbits/s speed=0.0115x elapsed=0:05:38.21    \nframe=  237 fps=0.7 q=36.3 size=     768KiB time=00:00:03.91 bitrate=1606.4kbits/s speed=0.0116x elapsed=0:05:38.77    \nframe=  237 fps=0.7 q=36.3 size=     768KiB time=00:00:03.91 bitrate=1606.4kbits/s speed=0.0115x elapsed=0:05:39.30    \nframe=  238 fps=0.7 q=38.3 size=     768KiB time=00:00:03.93 bitrate=1599.6kbits/s speed=0.0116x elapsed=0:05:39.87    \nframe=  238 fps=0.7 q=38.3 size=     768KiB time=00:00:03.93 bitrate=1599.6kbits/s speed=0.0116x elapsed=0:05:40.42    \nframe=  238 fps=0.7 q=38.3 size=     768KiB time=00:00:03.93 bitrate=1599.6kbits/s speed=0.0115x elapsed=0:05:40.96    \nframe=  238 fps=0.7 q=38.3 size=     768KiB time=00:00:03.93 bitrate=1599.6kbits/s speed=0.0115x elapsed=0:05:41.49    \nframe=  238 fps=0.7 q=38.3 size=     768KiB time=00:00:03.93 bitrate=1599.6kbits/s speed=0.0115x elapsed=0:05:42.02    \nframe=  238 fps=0.7 q=38.3 size=     768KiB time=00:00:03.93 bitrate=1599.6kbits/s speed=0.0115x elapsed=0:05:42.55    \nframe=  239 fps=0.7 q=37.5 size=     768KiB time=00:00:03.95 bitrate=1592.9kbits/s speed=0.0115x elapsed=0:05:43.09    \nframe=  239 fps=0.7 q=37.5 size=     768KiB time=00:00:03.95 bitrate=1592.9kbits/s speed=0.0115x elapsed=0:05:43.69    \nframe=  239 fps=0.7 q=37.5 size=     768KiB time=00:00:03.95 bitrate=1592.9kbits/s speed=0.0115x elapsed=0:05:44.25    \nframe=  239 fps=0.7 q=37.5 size=     768KiB time=00:00:03.95 bitrate=1592.9kbits/s speed=0.0115x elapsed=0:05:44.84    \nframe=  239 fps=0.7 q=37.5 size=     768KiB time=00:00:03.95 bitrate=1592.9kbits/s speed=0.0114x elapsed=0:05:45.40    \nframe=  239 fps=0.7 q=37.5 size=     768KiB time=00:00:03.95 bitrate=1592.9kbits/s speed=0.0114x elapsed=0:05:45.94    \nframe=  240 fps=0.7 q=38.9 size=     768KiB time=00:00:03.96 bitrate=1586.2kbits/s speed=0.0114x elapsed=0:05:46.50    \nframe=  240 fps=0.7 q=38.9 size=     768KiB time=00:00:03.96 bitrate=1586.2kbits/s speed=0.0114x elapsed=0:05:47.04    \nframe=  241 fps=0.7 q=32.2 size=     768KiB time=00:00:03.98 bitrate=1579.5kbits/s speed=0.0115x elapsed=0:05:47.56    \nframe=  241 fps=0.7 q=32.2 size=     768KiB time=00:00:03.98 bitrate=1579.5kbits/s speed=0.0114x elapsed=0:05:48.08    \nframe=  241 fps=0.7 q=32.2 size=     768KiB time=00:00:03.98 bitrate=1579.5kbits/s speed=0.0114x elapsed=0:05:48.62    \nframe=  241 fps=0.7 q=32.2 size=     768KiB time=00:00:03.98 bitrate=1579.5kbits/s speed=0.0114x elapsed=0:05:49.18    \nframe=  242 fps=0.7 q=36.4 size=     768KiB time=00:00:04.00 bitrate=1573.0kbits/s speed=0.0114x elapsed=0:05:49.72    \nframe=  242 fps=0.7 q=36.4 size=     768KiB time=00:00:04.00 bitrate=1573.0kbits/s speed=0.0114x elapsed=0:05:50.25    \nframe=  242 fps=0.7 q=36.4 size=     768KiB time=00:00:04.00 bitrate=1573.0kbits/s speed=0.0114x elapsed=0:05:50.82    \nframe=  242 fps=0.7 q=36.4 size=     768KiB time=00:00:04.00 bitrate=1573.0kbits/s speed=0.0114x elapsed=0:05:51.35    \nframe=  243 fps=0.7 q=38.2 size=     768KiB time=00:00:04.01 bitrate=1566.4kbits/s speed=0.0114x elapsed=0:05:51.93    \nframe=  243 fps=0.7 q=38.2 size=     768KiB time=00:00:04.01 bitrate=1566.4kbits/s speed=0.0114x elapsed=0:05:52.51    \nframe=  243 fps=0.7 q=38.2 size=     768KiB time=00:00:04.01 bitrate=1566.4kbits/s speed=0.0114x elapsed=0:05:53.03    \nframe=  243 fps=0.7 q=38.2 size=     768KiB time=00:00:04.01 bitrate=1566.4kbits/s speed=0.0114x elapsed=0:05:53.54    \nframe=  244 fps=0.7 q=37.9 size=     768KiB time=00:00:04.03 bitrate=1560.0kbits/s speed=0.0114x elapsed=0:05:54.09    \nframe=  244 fps=0.7 q=37.9 size=     768KiB time=00:00:04.03 bitrate=1560.0kbits/s speed=0.0114x elapsed=0:05:54.60    \nframe=  245 fps=0.7 q=38.6 size=     768KiB time=00:00:04.05 bitrate=1553.5kbits/s speed=0.0114x elapsed=0:05:55.14    \nframe=  245 fps=0.7 q=38.6 size=     768KiB time=00:00:04.05 bitrate=1553.5kbits/s speed=0.0114x elapsed=0:05:55.69    \nframe=  246 fps=0.7 q=32.3 size=     768KiB time=00:00:04.06 bitrate=1547.2kbits/s speed=0.0114x elapsed=0:05:56.22    \nframe=  246 fps=0.7 q=32.3 size=     768KiB time=00:00:04.06 bitrate=1547.2kbits/s speed=0.0114x elapsed=0:05:56.79    \nframe=  246 fps=0.7 q=32.3 size=     768KiB time=00:00:04.06 bitrate=1547.2kbits/s speed=0.0114x elapsed=0:05:57.35    \nframe=  247 fps=0.7 q=36.7 size=     768KiB time=00:00:04.08 bitrate=1540.9kbits/s speed=0.0114x elapsed=0:05:57.89    \nframe=  248 fps=0.7 q=38.4 size=     768KiB time=00:00:04.10 bitrate=1534.6kbits/s speed=0.0114x elapsed=0:05:58.43    \nframe=  248 fps=0.7 q=38.4 size=     768KiB time=00:00:04.10 bitrate=1534.6kbits/s speed=0.0114x elapsed=0:05:58.94    \nframe=  248 fps=0.7 q=38.4 size=     768KiB time=00:00:04.10 bitrate=1534.6kbits/s speed=0.0114x elapsed=0:05:59.45    \nframe=  249 fps=0.7 q=37.9 size=     768KiB time=00:00:04.11 bitrate=1528.4kbits/s speed=0.0114x elapsed=0:06:00.01    \nframe=  249 fps=0.7 q=37.9 size=     768KiB time=00:00:04.11 bitrate=1528.4kbits/s speed=0.0114x elapsed=0:06:00.54    \nframe=  249 fps=0.7 q=37.9 size=     768KiB time=00:00:04.11 bitrate=1528.4kbits/s speed=0.0114x elapsed=0:06:01.09    \nframe=  250 fps=0.7 q=38.3 size=     768KiB time=00:00:04.13 bitrate=1522.2kbits/s speed=0.0114x elapsed=0:06:01.60    \nframe=  250 fps=0.7 q=38.3 size=     768KiB time=00:00:04.13 bitrate=1522.2kbits/s speed=0.0114x elapsed=0:06:02.14    \nframe=  250 fps=0.7 q=38.3 size=     768KiB time=00:00:04.13 bitrate=1522.2kbits/s speed=0.0114x elapsed=0:06:02.67    \nframe=  251 fps=0.7 q=29.4 size=     768KiB time=00:00:04.15 bitrate=1516.1kbits/s speed=0.0114x elapsed=0:06:03.20    \nframe=  252 fps=0.7 q=32.2 size=     768KiB time=00:00:04.16 bitrate=1510.0kbits/s speed=0.0115x elapsed=0:06:03.72    \nframe=  252 fps=0.7 q=32.2 size=     768KiB time=00:00:04.16 bitrate=1510.0kbits/s speed=0.0114x elapsed=0:06:04.23    \nframe=  254 fps=0.7 q=38.6 size=     768KiB time=00:00:04.20 bitrate=1498.0kbits/s speed=0.0115x elapsed=0:06:04.77    \nframe=  254 fps=0.7 q=38.6 size=     768KiB time=00:00:04.20 bitrate=1498.0kbits/s speed=0.0115x elapsed=0:06:05.33    \nframe=  255 fps=0.7 q=37.2 size=     768KiB time=00:00:04.21 bitrate=1492.1kbits/s speed=0.0115x elapsed=0:06:05.86    \nframe=  255 fps=0.7 q=37.2 size=     768KiB time=00:00:04.21 bitrate=1492.1kbits/s speed=0.0115x elapsed=0:06:06.39    \nframe=  255 fps=0.7 q=37.2 size=     768KiB time=00:00:04.21 bitrate=1492.1kbits/s speed=0.0115x elapsed=0:06:06.91    \nframe=  256 fps=0.7 q=37.8 size=     768KiB time=00:00:04.23 bitrate=1486.3kbits/s speed=0.0115x elapsed=0:06:07.43    \nframe=  257 fps=0.7 q=31.9 size=     768KiB time=00:00:04.25 bitrate=1480.4kbits/s speed=0.0115x elapsed=0:06:07.96    \nframe=  258 fps=0.7 q=36.1 size=    1024KiB time=00:00:04.26 bitrate=1966.2kbits/s speed=0.0116x elapsed=0:06:08.48    \nframe=  259 fps=0.7 q=37.4 size=    1024KiB time=00:00:04.28 bitrate=1958.5kbits/s speed=0.0116x elapsed=0:06:09.00    \nframe=  259 fps=0.7 q=37.4 size=    1024KiB time=00:00:04.28 bitrate=1958.5kbits/s speed=0.0116x elapsed=0:06:09.53    \nframe=  259 fps=0.7 q=37.4 size=    1024KiB time=00:00:04.28 bitrate=1958.5kbits/s speed=0.0116x elapsed=0:06:10.05    \nframe=  260 fps=0.7 q=37.0 size=    1024KiB time=00:00:04.30 bitrate=1950.9kbits/s speed=0.0116x elapsed=0:06:10.57    \nframe=  260 fps=0.7 q=37.0 size=    1024KiB time=00:00:04.30 bitrate=1950.9kbits/s speed=0.0116x elapsed=0:06:11.09    \nframe=  262 fps=0.7 q=31.9 size=    1024KiB time=00:00:04.33 bitrate=1935.9kbits/s speed=0.0117x elapsed=0:06:11.61    \nframe=  263 fps=0.7 q=35.6 size=    1024KiB time=00:00:04.35 bitrate=1928.5kbits/s speed=0.0117x elapsed=0:06:12.16    \nframe=  264 fps=0.7 q=36.4 size=    1024KiB time=00:00:04.36 bitrate=1921.1kbits/s speed=0.0117x elapsed=0:06:12.68    \nframe=  264 fps=0.7 q=36.4 size=    1024KiB time=00:00:04.36 bitrate=1921.1kbits/s speed=0.0117x elapsed=0:06:13.21    \nframe=  264 fps=0.7 q=36.4 size=    1024KiB time=00:00:04.36 bitrate=1921.1kbits/s speed=0.0117x elapsed=0:06:13.73    \nframe=  265 fps=0.7 q=36.5 size=    1024KiB time=00:00:04.38 bitrate=1913.8kbits/s speed=0.0117x elapsed=0:06:14.25    \nframe=  266 fps=0.7 q=36.7 size=    1024KiB time=00:00:04.40 bitrate=1906.6kbits/s speed=0.0117x elapsed=0:06:14.77    \nframe=  267 fps=0.7 q=31.9 size=    1024KiB time=00:00:04.41 bitrate=1899.4kbits/s speed=0.0118x elapsed=0:06:15.29    \nframe=  267 fps=0.7 q=31.9 size=    1024KiB time=00:00:04.41 bitrate=1899.4kbits/s speed=0.0118x elapsed=0:06:15.84    \nframe=  267 fps=0.7 q=31.9 size=    1024KiB time=00:00:04.41 bitrate=1899.4kbits/s speed=0.0117x elapsed=0:06:16.39    \nframe=  268 fps=0.7 q=35.9 size=    1024KiB time=00:00:04.43 bitrate=1892.2kbits/s speed=0.0118x elapsed=0:06:16.91    \nframe=  268 fps=0.7 q=35.9 size=    1024KiB time=00:00:04.43 bitrate=1892.2kbits/s speed=0.0117x elapsed=0:06:17.43    \nframe=  269 fps=0.7 q=36.3 size=    1024KiB time=00:00:04.45 bitrate=1885.2kbits/s speed=0.0118x elapsed=0:06:17.96    \nframe=  269 fps=0.7 q=36.3 size=    1024KiB time=00:00:04.45 bitrate=1885.2kbits/s speed=0.0118x elapsed=0:06:18.47    \nframe=  269 fps=0.7 q=36.3 size=    1024KiB time=00:00:04.45 bitrate=1885.2kbits/s speed=0.0117x elapsed=0:06:18.98    \nframe=  270 fps=0.7 q=36.3 size=    1024KiB time=00:00:04.46 bitrate=1878.1kbits/s speed=0.0118x elapsed=0:06:19.51    \nframe=  270 fps=0.7 q=36.3 size=    1024KiB time=00:00:04.46 bitrate=1878.1kbits/s speed=0.0118x elapsed=0:06:20.02    \nframe=  270 fps=0.7 q=36.3 size=    1024KiB time=00:00:04.46 bitrate=1878.1kbits/s speed=0.0117x elapsed=0:06:20.57    \nframe=  271 fps=0.7 q=36.6 size=    1024KiB time=00:00:04.48 bitrate=1871.1kbits/s speed=0.0118x elapsed=0:06:21.10    \nframe=  273 fps=0.7 q=36.2 size=    1024KiB time=00:00:04.51 bitrate=1857.3kbits/s speed=0.0118x elapsed=0:06:21.62    \nframe=  273 fps=0.7 q=36.2 size=    1024KiB time=00:00:04.51 bitrate=1857.3kbits/s speed=0.0118x elapsed=0:06:22.12    \nframe=  273 fps=0.7 q=36.2 size=    1024KiB time=00:00:04.51 bitrate=1857.3kbits/s speed=0.0118x elapsed=0:06:22.64    \nframe=  274 fps=0.7 q=36.5 size=    1024KiB time=00:00:04.53 bitrate=1850.5kbits/s speed=0.0118x elapsed=0:06:23.17    \nframe=  275 fps=0.7 q=36.3 size=    1024KiB time=00:00:04.55 bitrate=1843.7kbits/s speed=0.0119x elapsed=0:06:23.70    \nframe=  275 fps=0.7 q=36.3 size=    1024KiB time=00:00:04.55 bitrate=1843.7kbits/s speed=0.0118x elapsed=0:06:24.22    \nframe=  275 fps=0.7 q=36.3 size=    1024KiB time=00:00:04.55 bitrate=1843.7kbits/s speed=0.0118x elapsed=0:06:24.80    \nframe=  276 fps=0.7 q=36.6 size=    1024KiB time=00:00:04.56 bitrate=1837.0kbits/s speed=0.0119x elapsed=0:06:25.32    \nframe=  276 fps=0.7 q=36.6 size=    1024KiB time=00:00:04.56 bitrate=1837.0kbits/s speed=0.0118x elapsed=0:06:25.84    \nframe=  277 fps=0.7 q=31.7 size=    1024KiB time=00:00:04.58 bitrate=1830.3kbits/s speed=0.0119x elapsed=0:06:26.39    \nframe=  278 fps=0.7 q=35.0 size=    1024KiB time=00:00:04.60 bitrate=1823.7kbits/s speed=0.0119x elapsed=0:06:26.93    \nframe=  278 fps=0.7 q=35.0 size=    1024KiB time=00:00:04.60 bitrate=1823.7kbits/s speed=0.0119x elapsed=0:06:27.44    \nframe=  279 fps=0.7 q=36.8 size=    1024KiB time=00:00:04.61 bitrate=1817.1kbits/s speed=0.0119x elapsed=0:06:27.98    \nframe=  279 fps=0.7 q=36.8 size=    1024KiB time=00:00:04.61 bitrate=1817.1kbits/s speed=0.0119x elapsed=0:06:28.52    \nframe=  280 fps=0.7 q=36.3 size=    1024KiB time=00:00:04.63 bitrate=1810.6kbits/s speed=0.0119x elapsed=0:06:29.04    \nframe=  281 fps=0.7 q=31.7 size=    1024KiB time=00:00:04.65 bitrate=1804.1kbits/s speed=0.0119x elapsed=0:06:29.57    \nframe=  282 fps=0.7 q=34.5 size=    1024KiB time=00:00:04.66 bitrate=1797.6kbits/s speed=0.012x elapsed=0:06:30.10    \nframe=  283 fps=0.7 q=36.3 size=    1024KiB time=00:00:04.68 bitrate=1791.2kbits/s speed=0.012x elapsed=0:06:30.62    \nframe=  283 fps=0.7 q=36.3 size=    1024KiB time=00:00:04.68 bitrate=1791.2kbits/s speed=0.012x elapsed=0:06:31.13    \nframe=  283 fps=0.7 q=36.3 size=    1024KiB time=00:00:04.68 bitrate=1791.2kbits/s speed=0.012x elapsed=0:06:31.67    \nframe=  283 fps=0.7 q=36.3 size=    1024KiB time=00:00:04.68 bitrate=1791.2kbits/s speed=0.0119x elapsed=0:06:32.19    \nframe=  284 fps=0.7 q=35.9 size=    1024KiB time=00:00:04.70 bitrate=1784.9kbits/s speed=0.012x elapsed=0:06:32.70    \nframe=  284 fps=0.7 q=35.9 size=    1024KiB time=00:00:04.70 bitrate=1784.9kbits/s speed=0.012x elapsed=0:06:33.23    \nframe=  285 fps=0.7 q=36.6 size=    1024KiB time=00:00:04.71 bitrate=1778.6kbits/s speed=0.012x elapsed=0:06:33.76    \nframe=  286 fps=0.7 q=31.6 size=    1024KiB time=00:00:04.73 bitrate=1772.3kbits/s speed=0.012x elapsed=0:06:34.28    \nframe=  287 fps=0.7 q=33.7 size=    1024KiB time=00:00:04.75 bitrate=1766.1kbits/s speed=0.012x elapsed=0:06:34.80    \nframe=  288 fps=0.7 q=35.3 size=    1024KiB time=00:00:04.76 bitrate=1759.9kbits/s speed=0.0121x elapsed=0:06:35.33    \nframe=  288 fps=0.7 q=35.3 size=    1024KiB time=00:00:04.76 bitrate=1759.9kbits/s speed=0.012x elapsed=0:06:35.86    \nframe=  288 fps=0.7 q=35.3 size=    1024KiB time=00:00:04.76 bitrate=1759.9kbits/s speed=0.012x elapsed=0:06:36.38    \nframe=  289 fps=0.7 q=35.2 size=    1024KiB time=00:00:04.78 bitrate=1753.8kbits/s speed=0.0121x elapsed=0:06:36.92    \nframe=  289 fps=0.7 q=35.2 size=    1024KiB time=00:00:04.78 bitrate=1753.8kbits/s speed=0.012x elapsed=0:06:37.49    \nframe=  289 fps=0.7 q=35.2 size=    1024KiB time=00:00:04.78 bitrate=1753.8kbits/s speed=0.012x elapsed=0:06:38.01    \nframe=  290 fps=0.7 q=35.4 size=    1024KiB time=00:00:04.80 bitrate=1747.7kbits/s speed=0.012x elapsed=0:06:38.55    \nframe=  291 fps=0.7 q=31.2 size=    1024KiB time=00:00:04.81 bitrate=1741.7kbits/s speed=0.0121x elapsed=0:06:39.09    \nframe=  291 fps=0.7 q=31.2 size=    1024KiB time=00:00:04.81 bitrate=1741.7kbits/s speed=0.0121x elapsed=0:06:39.60    \nframe=  292 fps=0.7 q=33.1 size=    1024KiB time=00:00:04.83 bitrate=1735.6kbits/s speed=0.0121x elapsed=0:06:40.12    \nframe=  293 fps=0.7 q=34.8 size=    1024KiB time=00:00:04.85 bitrate=1729.7kbits/s speed=0.0121x elapsed=0:06:40.62    \nframe=  294 fps=0.7 q=34.1 size=    1024KiB time=00:00:04.86 bitrate=1723.8kbits/s speed=0.0121x elapsed=0:06:41.15    \nframe=  295 fps=0.7 q=34.2 size=    1024KiB time=00:00:04.88 bitrate=1717.9kbits/s speed=0.0122x elapsed=0:06:41.66    \nframe=  295 fps=0.7 q=34.2 size=    1024KiB time=00:00:04.88 bitrate=1717.9kbits/s speed=0.0121x elapsed=0:06:42.18    \nframe=  298 fps=0.7 q=31.1 size=    1024KiB time=00:00:04.93 bitrate=1700.5kbits/s speed=0.0123x elapsed=0:06:42.70    \n[mp4 @ 0000017ac4e21300] Starting second pass: moving the moov atom to the beginning of the file\n[out#0/mp4 @ 0000017ac4e1acc0] video:1203KiB audio:0KiB subtitle:0KiB other streams:0KiB global headers:2KiB muxing overhead: 0.554275%\nframe=  300 fps=0.7 q=35.0 Lsize=    1209KiB time=00:00:04.96 bitrate=1994.6kbits/s speed=0.0123x elapsed=0:06:43.07    \nx265 [info]: frame I:      2, Avg QP:35.40  kb/s: 12004.08\nx265 [info]: frame P:     60, Avg QP:33.24  kb/s: 6236.44 \nx265 [info]: frame B:    238, Avg QP:37.80  kb/s: 808.23  \nx265 [info]: Weighted P-Frames: Y:0.0% UV:0.0%\n\nencoded 300 frames in 402.95s (0.74 fps), 1968.51 kb/s, Avg QP:36.87\n",
  "seconds": 403.40702629089355,
  "probe_out": {}
}